<svg width="275" height="612" viewBox="0 0 275 612" fill="none" xmlns="http://www.w3.org/2000/svg">
<mask id="path-1-outside-1_162_70" maskUnits="userSpaceOnUse" x="94" y="122" width="87" height="219" fill="black">
<rect fill="white" x="94" y="122" width="87" height="219"/>
<path d="M95.216 340V336.72L101.776 334.096C106.149 332.565 108.992 330.488 110.304 327.864C111.835 325.24 112.6 321.741 112.6 317.368V146.152C112.6 141.779 111.944 138.28 110.632 135.656C109.32 133.032 106.368 130.955 101.776 129.424L95.216 126.8V123.52H179.512V126.8L172.952 129.424C168.579 130.955 165.627 133.032 164.096 135.656C162.784 138.28 162.128 141.779 162.128 146.152V317.368C162.128 321.741 162.784 325.24 164.096 327.864C165.627 330.269 168.579 332.347 172.952 334.096L179.512 336.72V340H95.216Z"/>
</mask>
<path d="M95.216 340H94.216V341H95.216V340ZM95.216 336.72L94.8446 335.792L94.216 336.043V336.72H95.216ZM101.776 334.096L101.446 333.152L101.425 333.159L101.405 333.168L101.776 334.096ZM110.304 327.864L109.44 327.36L109.424 327.388L109.41 327.417L110.304 327.864ZM110.632 135.656L111.526 135.209L111.526 135.209L110.632 135.656ZM101.776 129.424L101.405 130.352L101.432 130.363L101.46 130.373L101.776 129.424ZM95.216 126.8H94.216V127.477L94.8446 127.728L95.216 126.8ZM95.216 123.52V122.52H94.216V123.52H95.216ZM179.512 123.52H180.512V122.52H179.512V123.52ZM179.512 126.8L179.883 127.728L180.512 127.477V126.8H179.512ZM172.952 129.424L173.282 130.368L173.303 130.361L173.323 130.352L172.952 129.424ZM164.096 135.656L163.232 135.152L163.216 135.18L163.202 135.209L164.096 135.656ZM164.096 327.864L163.202 328.311L163.225 328.357L163.252 328.401L164.096 327.864ZM172.952 334.096L172.581 335.024L172.581 335.024L172.952 334.096ZM179.512 336.72H180.512V336.043L179.883 335.792L179.512 336.72ZM179.512 340V341H180.512V340H179.512ZM96.216 340V336.72H94.216V340H96.216ZM95.5874 337.648L102.147 335.024L101.405 333.168L94.8446 335.792L95.5874 337.648ZM102.106 335.04C106.588 333.471 109.718 331.271 111.198 328.311L109.41 327.417C108.266 329.705 105.711 331.659 101.446 333.152L102.106 335.04ZM111.168 328.368C112.818 325.538 113.6 321.845 113.6 317.368H111.6C111.6 321.638 110.851 324.942 109.44 327.36L111.168 328.368ZM113.6 317.368V146.152H111.6V317.368H113.6ZM113.6 146.152C113.6 141.693 112.934 138.023 111.526 135.209L109.738 136.103C110.954 138.537 111.6 141.864 111.6 146.152H113.6ZM111.526 135.209C110.039 132.233 106.781 130.038 102.092 128.475L101.46 130.373C105.955 131.871 108.601 133.831 109.738 136.103L111.526 135.209ZM102.147 128.496L95.5874 125.872L94.8446 127.728L101.405 130.352L102.147 128.496ZM96.216 126.8V123.52H94.216V126.8H96.216ZM95.216 124.52H179.512V122.52H95.216V124.52ZM178.512 123.52V126.8H180.512V123.52H178.512ZM179.141 125.872L172.581 128.496L173.323 130.352L179.883 127.728L179.141 125.872ZM172.622 128.48C168.137 130.05 164.932 132.239 163.232 135.152L164.96 136.16C166.322 133.825 169.02 131.86 173.282 130.368L172.622 128.48ZM163.202 135.209C161.794 138.023 161.128 141.693 161.128 146.152H163.128C163.128 141.864 163.774 138.537 164.99 136.103L163.202 135.209ZM161.128 146.152V317.368H163.128V146.152H161.128ZM161.128 317.368C161.128 321.827 161.794 325.497 163.202 328.311L164.99 327.417C163.774 324.983 163.128 321.656 163.128 317.368H161.128ZM163.252 328.401C164.948 331.065 168.128 333.243 172.581 335.024L173.323 333.168C169.029 331.45 166.306 329.474 164.94 327.327L163.252 328.401ZM172.581 335.024L179.141 337.648L179.883 335.792L173.323 333.168L172.581 335.024ZM178.512 336.72V340H180.512V336.72H178.512ZM179.512 339H95.216V341H179.512V339Z" fill="#060100" mask="url(#path-1-outside-1_162_70)"/>
<mask id="path-3-outside-2_162_70" maskUnits="userSpaceOnUse" x="94" y="284" width="87" height="219" fill="black">
<rect fill="white" x="94" y="284" width="87" height="219"/>
<path d="M95.216 502V498.72L101.776 496.096C106.149 494.565 108.992 492.488 110.304 489.864C111.835 487.24 112.6 483.741 112.6 479.368V308.152C112.6 303.779 111.944 300.28 110.632 297.656C109.32 295.032 106.368 292.955 101.776 291.424L95.216 288.8V285.52H179.512V288.8L172.952 291.424C168.579 292.955 165.627 295.032 164.096 297.656C162.784 300.28 162.128 303.779 162.128 308.152V479.368C162.128 483.741 162.784 487.24 164.096 489.864C165.627 492.269 168.579 494.347 172.952 496.096L179.512 498.72V502H95.216Z"/>
</mask>
<path d="M95.216 502H94.216V503H95.216V502ZM95.216 498.72L94.8446 497.792L94.216 498.043V498.72H95.216ZM101.776 496.096L101.446 495.152L101.425 495.159L101.405 495.168L101.776 496.096ZM110.304 489.864L109.44 489.36L109.424 489.388L109.41 489.417L110.304 489.864ZM110.632 297.656L111.526 297.209L111.526 297.209L110.632 297.656ZM101.776 291.424L101.405 292.352L101.432 292.363L101.46 292.373L101.776 291.424ZM95.216 288.8H94.216V289.477L94.8446 289.728L95.216 288.8ZM95.216 285.52V284.52H94.216V285.52H95.216ZM179.512 285.52H180.512V284.52H179.512V285.52ZM179.512 288.8L179.883 289.728L180.512 289.477V288.8H179.512ZM172.952 291.424L173.282 292.368L173.303 292.361L173.323 292.352L172.952 291.424ZM164.096 297.656L163.232 297.152L163.216 297.18L163.202 297.209L164.096 297.656ZM164.096 489.864L163.202 490.311L163.225 490.357L163.252 490.401L164.096 489.864ZM172.952 496.096L172.581 497.024L172.581 497.024L172.952 496.096ZM179.512 498.72H180.512V498.043L179.883 497.792L179.512 498.72ZM179.512 502V503H180.512V502H179.512ZM96.216 502V498.72H94.216V502H96.216ZM95.5874 499.648L102.147 497.024L101.405 495.168L94.8446 497.792L95.5874 499.648ZM102.106 497.04C106.588 495.471 109.718 493.271 111.198 490.311L109.41 489.417C108.266 491.705 105.711 493.659 101.446 495.152L102.106 497.04ZM111.168 490.368C112.818 487.538 113.6 483.845 113.6 479.368H111.6C111.6 483.638 110.851 486.942 109.44 489.36L111.168 490.368ZM113.6 479.368V308.152H111.6V479.368H113.6ZM113.6 308.152C113.6 303.693 112.934 300.023 111.526 297.209L109.738 298.103C110.954 300.537 111.6 303.864 111.6 308.152H113.6ZM111.526 297.209C110.039 294.233 106.781 292.038 102.092 290.475L101.46 292.373C105.955 293.871 108.601 295.831 109.738 298.103L111.526 297.209ZM102.147 290.496L95.5874 287.872L94.8446 289.728L101.405 292.352L102.147 290.496ZM96.216 288.8V285.52H94.216V288.8H96.216ZM95.216 286.52H179.512V284.52H95.216V286.52ZM178.512 285.52V288.8H180.512V285.52H178.512ZM179.141 287.872L172.581 290.496L173.323 292.352L179.883 289.728L179.141 287.872ZM172.622 290.48C168.137 292.05 164.932 294.239 163.232 297.152L164.96 298.16C166.322 295.825 169.02 293.86 173.282 292.368L172.622 290.48ZM163.202 297.209C161.794 300.023 161.128 303.693 161.128 308.152H163.128C163.128 303.864 163.774 300.537 164.99 298.103L163.202 297.209ZM161.128 308.152V479.368H163.128V308.152H161.128ZM161.128 479.368C161.128 483.827 161.794 487.497 163.202 490.311L164.99 489.417C163.774 486.983 163.128 483.656 163.128 479.368H161.128ZM163.252 490.401C164.948 493.065 168.128 495.243 172.581 497.024L173.323 495.168C169.029 493.45 166.306 491.474 164.94 489.327L163.252 490.401ZM172.581 497.024L179.141 499.648L179.883 497.792L173.323 495.168L172.581 497.024ZM178.512 498.72V502H180.512V498.72H178.512ZM179.512 501H95.216V503H179.512V501Z" fill="#060100" mask="url(#path-3-outside-2_162_70)"/>
<rect y="267" width="275" height="77" fill="#E9E4E0"/>
<path d="M41.36 293.68C41.2533 294.8 41.1733 295.893 41.12 296.96C41.0933 298 41.08 298.8 41.08 299.36C41.08 299.973 41.0933 300.56 41.12 301.12C41.1467 301.68 41.1733 302.16 41.2 302.56H40.28C40.0133 300.56 39.6533 298.987 39.2 297.84C38.7733 296.693 38.1467 295.867 37.32 295.36C36.4933 294.853 35.3067 294.6 33.76 294.6H32.04V317.4C32.04 318.467 32.1333 319.267 32.32 319.8C32.5333 320.333 32.9333 320.693 33.52 320.88C34.1333 321.04 35.0133 321.147 36.16 321.2V322C35.4133 321.947 34.4533 321.92 33.28 321.92C32.1067 321.893 30.9067 321.88 29.68 321.88C28.4 321.88 27.1867 321.893 26.04 321.92C24.92 321.92 24.0133 321.947 23.32 322V321.2C24.4667 321.147 25.3333 321.04 25.92 320.88C26.5067 320.693 26.9067 320.333 27.12 319.8C27.3333 319.267 27.44 318.467 27.44 317.4V294.6H25.68C24.1867 294.6 23.0133 294.853 22.16 295.36C21.3067 295.867 20.6667 296.693 20.24 297.84C19.8133 298.987 19.4667 300.56 19.2 302.56H18.28C18.3333 302.16 18.36 301.68 18.36 301.12C18.3867 300.56 18.4 299.973 18.4 299.36C18.4 298.8 18.3733 298 18.32 296.96C18.2933 295.893 18.2267 294.8 18.12 293.68C19.2667 293.707 20.52 293.733 21.88 293.76C23.24 293.787 24.6133 293.8 26 293.8C27.3867 293.8 28.64 293.8 29.76 293.8C30.88 293.8 32.12 293.8 33.48 293.8C34.84 293.8 36.2133 293.787 37.6 293.76C38.9867 293.733 40.24 293.707 41.36 293.68ZM64.4688 293.68C64.3621 294.693 64.2821 295.68 64.2288 296.64C64.2021 297.573 64.1888 298.293 64.1888 298.8C64.1888 299.307 64.2021 299.787 64.2288 300.24C64.2554 300.693 64.2821 301.067 64.3088 301.36H63.3888C63.2021 299.653 62.9088 298.307 62.5088 297.32C62.1354 296.333 61.5621 295.64 60.7888 295.24C60.0421 294.813 58.9888 294.6 57.6288 294.6H54.8688C54.0154 294.6 53.3621 294.68 52.9088 294.84C52.4821 294.973 52.1888 295.267 52.0288 295.72C51.8688 296.147 51.7888 296.827 51.7888 297.76V317.92C51.7888 318.827 51.8688 319.507 52.0288 319.96C52.1888 320.413 52.4821 320.72 52.9088 320.88C53.3621 321.013 54.0154 321.08 54.8688 321.08H57.4688C58.9888 321.08 60.1888 320.84 61.0688 320.36C61.9754 319.88 62.6554 319.093 63.1088 318C63.5888 316.907 63.9488 315.413 64.1888 313.52H65.1088C65.0288 314.293 64.9888 315.307 64.9888 316.56C64.9888 317.093 65.0021 317.867 65.0288 318.88C65.0821 319.893 65.1621 320.933 65.2688 322C63.9088 321.947 62.3754 321.92 60.6688 321.92C58.9621 321.893 57.4421 321.88 56.1088 321.88C55.4954 321.88 54.7088 321.88 53.7488 321.88C52.7888 321.88 51.7488 321.893 50.6288 321.92C49.5354 321.92 48.4154 321.933 47.2688 321.96C46.1488 321.96 45.0688 321.973 44.0288 322V321.2C44.9354 321.147 45.6154 321.04 46.0688 320.88C46.5221 320.72 46.8154 320.4 46.9488 319.92C47.1088 319.44 47.1888 318.72 47.1888 317.76V297.92C47.1888 296.933 47.1088 296.213 46.9488 295.76C46.8154 295.28 46.5088 294.96 46.0288 294.8C45.5754 294.613 44.9088 294.507 44.0288 294.48V293.68C45.0688 293.707 46.1488 293.733 47.2688 293.76C48.4154 293.76 49.5354 293.773 50.6288 293.8C51.7488 293.8 52.7888 293.8 53.7488 293.8C54.7088 293.8 55.4954 293.8 56.1088 293.8C57.3354 293.8 58.7221 293.8 60.2688 293.8C61.8421 293.773 63.2421 293.733 64.4688 293.68ZM57.8288 307.36C57.8288 307.36 57.8288 307.493 57.8288 307.76C57.8288 308.027 57.8288 308.16 57.8288 308.16H50.5888C50.5888 308.16 50.5888 308.027 50.5888 307.76C50.5888 307.493 50.5888 307.36 50.5888 307.36H57.8288ZM58.9888 302.08C58.8821 303.6 58.8288 304.76 58.8288 305.56C58.8554 306.36 58.8688 307.093 58.8688 307.76C58.8688 308.427 58.8821 309.16 58.9088 309.96C58.9354 310.76 59.0021 311.92 59.1088 313.44H58.1888C58.0554 312.56 57.8821 311.72 57.6688 310.92C57.4554 310.093 57.0688 309.427 56.5088 308.92C55.9754 308.413 55.1354 308.16 53.9888 308.16V307.36C54.8421 307.36 55.5088 307.187 55.9888 306.84C56.4954 306.493 56.8821 306.04 57.1488 305.48C57.4154 304.92 57.6021 304.347 57.7088 303.76C57.8421 303.147 57.9621 302.587 58.0688 302.08H58.9888ZM82.3563 293.12C84.1163 293.12 85.5563 293.387 86.6763 293.92C87.8229 294.427 88.8363 295.027 89.7163 295.72C90.2496 296.12 90.6496 296.173 90.9163 295.88C91.2096 295.56 91.4096 294.827 91.5163 293.68H92.4363C92.3829 294.693 92.3429 295.92 92.3163 297.36C92.2896 298.773 92.2763 300.667 92.2763 303.04H91.3563C91.1696 301.867 90.9829 300.907 90.7963 300.16C90.6363 299.413 90.4096 298.773 90.1163 298.24C89.8496 297.707 89.4763 297.187 88.9963 296.68C88.2229 295.72 87.2763 295.027 86.1563 294.6C85.0363 294.173 83.8496 293.96 82.5963 293.96C81.2363 293.96 80.0363 294.307 78.9963 295C77.9563 295.667 77.0763 296.627 76.3563 297.88C75.6629 299.133 75.1296 300.613 74.7563 302.32C74.3829 304.027 74.1963 305.893 74.1963 307.92C74.1963 310 74.3963 311.893 74.7963 313.6C75.1963 315.28 75.7696 316.733 76.5163 317.96C77.2896 319.16 78.2096 320.093 79.2763 320.76C80.3696 321.4 81.5829 321.72 82.9163 321.72C84.0096 321.72 85.1429 321.507 86.3163 321.08C87.4896 320.627 88.4229 319.947 89.1163 319.04C89.8629 318.24 90.3696 317.347 90.6363 316.36C90.9296 315.347 91.1696 313.973 91.3563 312.24H92.2763C92.2763 314.693 92.2896 316.68 92.3163 318.2C92.3429 319.693 92.3829 320.96 92.4363 322H91.5163C91.4096 320.853 91.2229 320.133 90.9563 319.84C90.7163 319.547 90.3029 319.587 89.7163 319.96C88.7296 320.653 87.6763 321.267 86.5563 321.8C85.4629 322.307 84.0496 322.56 82.3163 322.56C79.6763 322.56 77.3696 321.987 75.3963 320.84C73.4229 319.693 71.8896 318.04 70.7963 315.88C69.7029 313.72 69.1563 311.12 69.1563 308.08C69.1563 305.093 69.7163 302.48 70.8363 300.24C71.9829 298 73.5429 296.253 75.5163 295C77.4896 293.747 79.7696 293.12 82.3563 293.12ZM113.29 322V321.2C114.196 321.147 114.876 321.04 115.33 320.88C115.783 320.72 116.076 320.4 116.21 319.92C116.37 319.44 116.45 318.72 116.45 317.76V297.92C116.45 296.933 116.37 296.213 116.21 295.76C116.076 295.28 115.77 294.96 115.29 294.8C114.836 294.613 114.17 294.507 113.29 294.48V293.68C113.956 293.707 114.783 293.733 115.77 293.76C116.783 293.787 117.783 293.8 118.77 293.8C119.89 293.8 120.93 293.787 121.89 293.76C122.85 293.733 123.623 293.707 124.21 293.68V294.48C123.33 294.507 122.663 294.613 122.21 294.8C121.756 294.96 121.45 295.28 121.29 295.76C121.13 296.213 121.05 296.933 121.05 297.92V317.76C121.05 318.72 121.13 319.44 121.29 319.92C121.45 320.4 121.756 320.72 122.21 320.88C122.663 321.04 123.33 321.147 124.21 321.2V322C123.623 321.947 122.85 321.92 121.89 321.92C120.93 321.893 119.89 321.88 118.77 321.88C117.783 321.88 116.783 321.893 115.77 321.92C114.783 321.92 113.956 321.947 113.29 322ZM96.4897 322V321.2C97.3964 321.147 98.0764 321.04 98.5297 320.88C98.983 320.72 99.2764 320.4 99.4097 319.92C99.5697 319.44 99.6497 318.72 99.6497 317.76V297.92C99.6497 296.933 99.5697 296.213 99.4097 295.76C99.2764 295.28 98.9697 294.96 98.4897 294.8C98.0364 294.613 97.3697 294.507 96.4897 294.48V293.68C97.103 293.707 97.8897 293.733 98.8497 293.76C99.8364 293.787 100.89 293.8 102.01 293.8C103.023 293.8 104.01 293.787 104.97 293.76C105.956 293.733 106.77 293.707 107.41 293.68V294.48C106.53 294.507 105.863 294.613 105.41 294.8C104.956 294.96 104.65 295.28 104.49 295.76C104.33 296.213 104.25 296.933 104.25 297.92V317.76C104.25 318.72 104.33 319.44 104.49 319.92C104.65 320.4 104.956 320.72 105.41 320.88C105.863 321.04 106.53 321.147 107.41 321.2V322C106.77 321.947 105.956 321.92 104.97 321.92C104.01 321.893 103.023 321.88 102.01 321.88C100.89 321.88 99.8364 321.893 98.8497 321.92C97.8897 321.92 97.103 321.947 96.4897 322ZM102.45 308.16V307.36H118.25V308.16H102.45ZM146.155 293.2C147.568 293.2 148.648 293.36 149.395 293.68C150.141 294 150.795 294.347 151.355 294.72C151.675 294.907 151.928 295.053 152.115 295.16C152.328 295.24 152.528 295.28 152.715 295.28C152.981 295.28 153.168 295.133 153.275 294.84C153.408 294.547 153.515 294.107 153.595 293.52H154.515C154.488 294 154.448 294.573 154.395 295.24C154.368 295.88 154.341 296.733 154.315 297.8C154.315 298.867 154.315 300.267 154.315 302H153.395C153.315 300.693 153.021 299.427 152.515 298.2C152.035 296.973 151.315 295.973 150.355 295.2C149.421 294.427 148.221 294.04 146.755 294.04C145.395 294.04 144.261 294.453 143.355 295.28C142.475 296.08 142.035 297.147 142.035 298.48C142.035 299.653 142.328 300.64 142.915 301.44C143.501 302.213 144.301 302.947 145.315 303.64C146.355 304.307 147.528 305.053 148.835 305.88C150.168 306.733 151.368 307.587 152.435 308.44C153.501 309.267 154.341 310.187 154.955 311.2C155.568 312.213 155.875 313.44 155.875 314.88C155.875 316.613 155.461 318.053 154.635 319.2C153.835 320.32 152.755 321.16 151.395 321.72C150.035 322.28 148.541 322.56 146.915 322.56C145.421 322.56 144.235 322.4 143.355 322.08C142.475 321.76 141.728 321.427 141.115 321.08C140.528 320.707 140.075 320.52 139.755 320.52C139.488 320.52 139.288 320.667 139.155 320.96C139.048 321.253 138.955 321.693 138.875 322.28H137.955C138.008 321.693 138.035 321.013 138.035 320.24C138.061 319.44 138.075 318.4 138.075 317.12C138.101 315.84 138.115 314.227 138.115 312.28H139.035C139.141 313.933 139.435 315.48 139.915 316.92C140.421 318.36 141.181 319.52 142.195 320.4C143.235 321.253 144.608 321.68 146.315 321.68C147.221 321.68 148.061 321.507 148.835 321.16C149.608 320.813 150.235 320.267 150.715 319.52C151.195 318.773 151.435 317.813 151.435 316.64C151.435 315.547 151.168 314.587 150.635 313.76C150.128 312.933 149.408 312.173 148.475 311.48C147.568 310.76 146.501 310.027 145.275 309.28C144.021 308.48 142.848 307.68 141.755 306.88C140.661 306.08 139.781 305.147 139.115 304.08C138.475 303.013 138.155 301.747 138.155 300.28C138.155 298.653 138.528 297.32 139.275 296.28C140.048 295.24 141.035 294.467 142.235 293.96C143.461 293.453 144.768 293.2 146.155 293.2ZM182.102 293.68C181.996 294.8 181.916 295.893 181.862 296.96C181.836 298 181.822 298.8 181.822 299.36C181.822 299.973 181.836 300.56 181.862 301.12C181.889 301.68 181.916 302.16 181.942 302.56H181.022C180.756 300.56 180.396 298.987 179.942 297.84C179.516 296.693 178.889 295.867 178.062 295.36C177.236 294.853 176.049 294.6 174.502 294.6H172.782V317.4C172.782 318.467 172.876 319.267 173.062 319.8C173.276 320.333 173.676 320.693 174.262 320.88C174.876 321.04 175.756 321.147 176.902 321.2V322C176.156 321.947 175.196 321.92 174.022 321.92C172.849 321.893 171.649 321.88 170.422 321.88C169.142 321.88 167.929 321.893 166.782 321.92C165.662 321.92 164.756 321.947 164.062 322V321.2C165.209 321.147 166.076 321.04 166.662 320.88C167.249 320.693 167.649 320.333 167.862 319.8C168.076 319.267 168.182 318.467 168.182 317.4V294.6H166.422C164.929 294.6 163.756 294.853 162.902 295.36C162.049 295.867 161.409 296.693 160.982 297.84C160.556 298.987 160.209 300.56 159.942 302.56H159.022C159.076 302.16 159.102 301.68 159.102 301.12C159.129 300.56 159.142 299.973 159.142 299.36C159.142 298.8 159.116 298 159.062 296.96C159.036 295.893 158.969 294.8 158.862 293.68C160.009 293.707 161.262 293.733 162.622 293.76C163.982 293.787 165.356 293.8 166.742 293.8C168.129 293.8 169.382 293.8 170.502 293.8C171.622 293.8 172.862 293.8 174.222 293.8C175.582 293.8 176.956 293.787 178.342 293.76C179.729 293.733 180.982 293.707 182.102 293.68ZM194.7 293.52L204.46 318.64C204.833 319.627 205.26 320.293 205.74 320.64C206.246 320.987 206.713 321.173 207.14 321.2V322C206.5 321.947 205.74 321.92 204.86 321.92C204.006 321.893 203.14 321.88 202.26 321.88C201.14 321.88 200.1 321.893 199.14 321.92C198.18 321.92 197.406 321.947 196.82 322V321.2C198.18 321.147 199.033 320.92 199.38 320.52C199.753 320.093 199.673 319.2 199.14 317.84L191.94 298.4L192.58 297.68L185.94 315.04C185.46 316.24 185.166 317.24 185.06 318.04C184.98 318.84 185.046 319.467 185.26 319.92C185.5 320.373 185.9 320.693 186.46 320.88C187.02 321.067 187.713 321.173 188.54 321.2V322C187.74 321.947 186.926 321.92 186.1 321.92C185.3 321.893 184.54 321.88 183.82 321.88C183.18 321.88 182.606 321.893 182.1 321.92C181.62 321.92 181.18 321.947 180.78 322V321.2C181.34 321.067 181.9 320.733 182.46 320.2C183.02 319.667 183.553 318.76 184.06 317.48L193.34 293.52C193.553 293.52 193.78 293.52 194.02 293.52C194.26 293.52 194.486 293.52 194.7 293.52ZM198.9 310.48V311.28H186.98L187.38 310.48H198.9ZM221.653 293.12C223.413 293.12 224.853 293.387 225.973 293.92C227.12 294.427 228.133 295.027 229.013 295.72C229.546 296.12 229.946 296.173 230.213 295.88C230.506 295.56 230.706 294.827 230.813 293.68H231.733C231.68 294.693 231.64 295.92 231.613 297.36C231.586 298.773 231.573 300.667 231.573 303.04H230.653C230.466 301.867 230.28 300.907 230.093 300.16C229.933 299.413 229.706 298.773 229.413 298.24C229.146 297.707 228.773 297.187 228.293 296.68C227.52 295.72 226.573 295.027 225.453 294.6C224.333 294.173 223.146 293.96 221.893 293.96C220.533 293.96 219.333 294.307 218.293 295C217.253 295.667 216.373 296.627 215.653 297.88C214.96 299.133 214.426 300.613 214.053 302.32C213.68 304.027 213.493 305.893 213.493 307.92C213.493 310 213.693 311.893 214.093 313.6C214.493 315.28 215.066 316.733 215.813 317.96C216.586 319.16 217.506 320.093 218.573 320.76C219.666 321.4 220.88 321.72 222.213 321.72C223.306 321.72 224.44 321.507 225.613 321.08C226.786 320.627 227.72 319.947 228.413 319.04C229.16 318.24 229.666 317.347 229.933 316.36C230.226 315.347 230.466 313.973 230.653 312.24H231.573C231.573 314.693 231.586 316.68 231.613 318.2C231.64 319.693 231.68 320.96 231.733 322H230.813C230.706 320.853 230.52 320.133 230.253 319.84C230.013 319.547 229.6 319.587 229.013 319.96C228.026 320.653 226.973 321.267 225.853 321.8C224.76 322.307 223.346 322.56 221.613 322.56C218.973 322.56 216.666 321.987 214.693 320.84C212.72 319.693 211.186 318.04 210.093 315.88C209 313.72 208.453 311.12 208.453 308.08C208.453 305.093 209.013 302.48 210.133 300.24C211.28 298 212.84 296.253 214.813 295C216.786 293.747 219.066 293.12 221.653 293.12ZM259.827 293.68V294.48C258.973 294.613 258.12 294.92 257.267 295.4C256.44 295.853 255.6 296.613 254.747 297.68L247.067 307.28L248.427 304.84L258.027 318.76C258.453 319.4 258.907 319.907 259.387 320.28C259.893 320.653 260.533 320.96 261.307 321.2V322C260.587 321.947 259.72 321.92 258.707 321.92C257.693 321.893 256.8 321.88 256.027 321.88C255.547 321.88 254.947 321.893 254.227 321.92C253.533 321.92 252.653 321.947 251.587 322V321.2C252.573 321.147 253.173 320.987 253.387 320.72C253.627 320.453 253.533 320.013 253.107 319.4L247.307 310.4C246.827 309.653 246.4 309.093 246.027 308.72C245.653 308.32 245.267 308.067 244.867 307.96C244.467 307.827 243.973 307.747 243.387 307.72V306.88C244.507 306.853 245.467 306.6 246.267 306.12C247.093 305.64 247.867 304.987 248.587 304.16L251.907 299.96C252.84 298.813 253.44 297.84 253.707 297.04C253.973 296.213 253.907 295.587 253.507 295.16C253.107 294.733 252.36 294.507 251.267 294.48V293.68C251.827 293.707 252.373 293.733 252.907 293.76C253.467 293.76 254.027 293.773 254.587 293.8C255.173 293.8 255.747 293.8 256.307 293.8C257.027 293.8 257.68 293.787 258.267 293.76C258.88 293.733 259.4 293.707 259.827 293.68ZM246.707 293.68V294.48C245.827 294.507 245.16 294.613 244.707 294.8C244.253 294.96 243.947 295.28 243.787 295.76C243.627 296.213 243.547 296.933 243.547 297.92V317.76C243.547 318.72 243.627 319.44 243.787 319.92C243.947 320.4 244.253 320.72 244.707 320.88C245.16 321.04 245.827 321.147 246.707 321.2V322C246.067 321.947 245.253 321.92 244.267 321.92C243.307 321.893 242.32 321.88 241.307 321.88C240.187 321.88 239.133 321.893 238.147 321.92C237.187 321.92 236.4 321.947 235.787 322V321.2C236.693 321.147 237.373 321.04 237.827 320.88C238.28 320.72 238.573 320.4 238.707 319.92C238.867 319.44 238.947 318.72 238.947 317.76V297.92C238.947 296.933 238.867 296.213 238.707 295.76C238.573 295.28 238.267 294.96 237.787 294.8C237.333 294.613 236.667 294.507 235.787 294.48V293.68C236.4 293.707 237.187 293.733 238.147 293.76C239.133 293.787 240.187 293.8 241.307 293.8C242.32 293.8 243.307 293.787 244.267 293.76C245.253 293.733 246.067 293.707 246.707 293.68Z" fill="#060100"/>
</svg>
