<svg width="275" height="612" viewBox="0 0 275 612" fill="none" xmlns="http://www.w3.org/2000/svg">
<mask id="path-1-outside-1_162_92" maskUnits="userSpaceOnUse" x="56" y="122" width="87" height="219" fill="black">
<rect fill="white" x="56" y="122" width="87" height="219"/>
<path d="M57.216 340V336.72L63.776 334.096C68.1493 332.565 70.992 330.488 72.304 327.864C73.8347 325.24 74.6 321.741 74.6 317.368V146.152C74.6 141.779 73.944 138.28 72.632 135.656C71.32 133.032 68.368 130.955 63.776 129.424L57.216 126.8V123.52H141.512V126.8L134.952 129.424C130.579 130.955 127.627 133.032 126.096 135.656C124.784 138.28 124.128 141.779 124.128 146.152V317.368C124.128 321.741 124.784 325.24 126.096 327.864C127.627 330.269 130.579 332.347 134.952 334.096L141.512 336.72V340H57.216Z"/>
</mask>
<path d="M57.216 340H56.216V341H57.216V340ZM57.216 336.72L56.8446 335.792L56.216 336.043V336.72H57.216ZM63.776 334.096L63.4457 333.152L63.425 333.159L63.4046 333.168L63.776 334.096ZM72.304 327.864L71.4402 327.36L71.424 327.388L71.4096 327.417L72.304 327.864ZM72.632 135.656L73.5264 135.209L73.5264 135.209L72.632 135.656ZM63.776 129.424L63.4046 130.352L63.4319 130.363L63.4598 130.373L63.776 129.424ZM57.216 126.8H56.216V127.477L56.8446 127.728L57.216 126.8ZM57.216 123.52V122.52H56.216V123.52H57.216ZM141.512 123.52H142.512V122.52H141.512V123.52ZM141.512 126.8L141.883 127.728L142.512 127.477V126.8H141.512ZM134.952 129.424L135.282 130.368L135.303 130.361L135.323 130.352L134.952 129.424ZM126.096 135.656L125.232 135.152L125.216 135.18L125.202 135.209L126.096 135.656ZM126.096 327.864L125.202 328.311L125.225 328.357L125.252 328.401L126.096 327.864ZM134.952 334.096L134.581 335.024L134.581 335.024L134.952 334.096ZM141.512 336.72H142.512V336.043L141.883 335.792L141.512 336.72ZM141.512 340V341H142.512V340H141.512ZM58.216 340V336.72H56.216V340H58.216ZM57.5874 337.648L64.1474 335.024L63.4046 333.168L56.8446 335.792L57.5874 337.648ZM64.1064 335.04C68.5881 333.471 71.7183 331.271 73.1984 328.311L71.4096 327.417C70.2657 329.705 67.7105 331.659 63.4457 333.152L64.1064 335.04ZM73.1678 328.368C74.8185 325.538 75.6 321.845 75.6 317.368H73.6C73.6 321.638 72.8509 324.942 71.4402 327.36L73.1678 328.368ZM75.6 317.368V146.152H73.6V317.368H75.6ZM75.6 146.152C75.6 141.693 74.9335 138.023 73.5264 135.209L71.7376 136.103C72.9545 138.537 73.6 141.864 73.6 146.152H75.6ZM73.5264 135.209C72.0386 132.233 68.7805 130.038 64.0922 128.475L63.4598 130.373C67.9555 131.871 70.6014 133.831 71.7376 136.103L73.5264 135.209ZM64.1474 128.496L57.5874 125.872L56.8446 127.728L63.4046 130.352L64.1474 128.496ZM58.216 126.8V123.52H56.216V126.8H58.216ZM57.216 124.52H141.512V122.52H57.216V124.52ZM140.512 123.52V126.8H142.512V123.52H140.512ZM141.141 125.872L134.581 128.496L135.323 130.352L141.883 127.728L141.141 125.872ZM134.622 128.48C130.137 130.05 126.932 132.239 125.232 135.152L126.96 136.16C128.322 133.825 131.02 131.86 135.282 130.368L134.622 128.48ZM125.202 135.209C123.794 138.023 123.128 141.693 123.128 146.152H125.128C125.128 141.864 125.774 138.537 126.99 136.103L125.202 135.209ZM123.128 146.152V317.368H125.128V146.152H123.128ZM123.128 317.368C123.128 321.827 123.794 325.497 125.202 328.311L126.99 327.417C125.774 324.983 125.128 321.656 125.128 317.368H123.128ZM125.252 328.401C126.948 331.065 130.128 333.243 134.581 335.024L135.323 333.168C131.029 331.45 128.306 329.474 126.94 327.327L125.252 328.401ZM134.581 335.024L141.141 337.648L141.883 335.792L135.323 333.168L134.581 335.024ZM140.512 336.72V340H142.512V336.72H140.512ZM141.512 339H57.216V341H141.512V339Z" fill="#060100" mask="url(#path-1-outside-1_162_92)"/>
<mask id="path-3-outside-2_162_92" maskUnits="userSpaceOnUse" x="56" y="284" width="87" height="219" fill="black">
<rect fill="white" x="56" y="284" width="87" height="219"/>
<path d="M57.216 502V498.72L63.776 496.096C68.1493 494.565 70.992 492.488 72.304 489.864C73.8347 487.24 74.6 483.741 74.6 479.368V308.152C74.6 303.779 73.944 300.28 72.632 297.656C71.32 295.032 68.368 292.955 63.776 291.424L57.216 288.8V285.52H141.512V288.8L134.952 291.424C130.579 292.955 127.627 295.032 126.096 297.656C124.784 300.28 124.128 303.779 124.128 308.152V479.368C124.128 483.741 124.784 487.24 126.096 489.864C127.627 492.269 130.579 494.347 134.952 496.096L141.512 498.72V502H57.216Z"/>
</mask>
<path d="M57.216 502H56.216V503H57.216V502ZM57.216 498.72L56.8446 497.792L56.216 498.043V498.72H57.216ZM63.776 496.096L63.4457 495.152L63.425 495.159L63.4046 495.168L63.776 496.096ZM72.304 489.864L71.4402 489.36L71.424 489.388L71.4096 489.417L72.304 489.864ZM72.632 297.656L73.5264 297.209L73.5264 297.209L72.632 297.656ZM63.776 291.424L63.4046 292.352L63.4319 292.363L63.4598 292.373L63.776 291.424ZM57.216 288.8H56.216V289.477L56.8446 289.728L57.216 288.8ZM57.216 285.52V284.52H56.216V285.52H57.216ZM141.512 285.52H142.512V284.52H141.512V285.52ZM141.512 288.8L141.883 289.728L142.512 289.477V288.8H141.512ZM134.952 291.424L135.282 292.368L135.303 292.361L135.323 292.352L134.952 291.424ZM126.096 297.656L125.232 297.152L125.216 297.18L125.202 297.209L126.096 297.656ZM126.096 489.864L125.202 490.311L125.225 490.357L125.252 490.401L126.096 489.864ZM134.952 496.096L134.581 497.024L134.581 497.024L134.952 496.096ZM141.512 498.72H142.512V498.043L141.883 497.792L141.512 498.72ZM141.512 502V503H142.512V502H141.512ZM58.216 502V498.72H56.216V502H58.216ZM57.5874 499.648L64.1474 497.024L63.4046 495.168L56.8446 497.792L57.5874 499.648ZM64.1064 497.04C68.5881 495.471 71.7183 493.271 73.1984 490.311L71.4096 489.417C70.2657 491.705 67.7105 493.659 63.4457 495.152L64.1064 497.04ZM73.1678 490.368C74.8185 487.538 75.6 483.845 75.6 479.368H73.6C73.6 483.638 72.8509 486.942 71.4402 489.36L73.1678 490.368ZM75.6 479.368V308.152H73.6V479.368H75.6ZM75.6 308.152C75.6 303.693 74.9335 300.023 73.5264 297.209L71.7376 298.103C72.9545 300.537 73.6 303.864 73.6 308.152H75.6ZM73.5264 297.209C72.0386 294.233 68.7805 292.038 64.0922 290.475L63.4598 292.373C67.9555 293.871 70.6014 295.831 71.7376 298.103L73.5264 297.209ZM64.1474 290.496L57.5874 287.872L56.8446 289.728L63.4046 292.352L64.1474 290.496ZM58.216 288.8V285.52H56.216V288.8H58.216ZM57.216 286.52H141.512V284.52H57.216V286.52ZM140.512 285.52V288.8H142.512V285.52H140.512ZM141.141 287.872L134.581 290.496L135.323 292.352L141.883 289.728L141.141 287.872ZM134.622 290.48C130.137 292.05 126.932 294.239 125.232 297.152L126.96 298.16C128.322 295.825 131.02 293.86 135.282 292.368L134.622 290.48ZM125.202 297.209C123.794 300.023 123.128 303.693 123.128 308.152H125.128C125.128 303.864 125.774 300.537 126.99 298.103L125.202 297.209ZM123.128 308.152V479.368H125.128V308.152H123.128ZM123.128 479.368C123.128 483.827 123.794 487.497 125.202 490.311L126.99 489.417C125.774 486.983 125.128 483.656 125.128 479.368H123.128ZM125.252 490.401C126.948 493.065 130.128 495.243 134.581 497.024L135.323 495.168C131.029 493.45 128.306 491.474 126.94 489.327L125.252 490.401ZM134.581 497.024L141.141 499.648L141.883 497.792L135.323 495.168L134.581 497.024ZM140.512 498.72V502H142.512V498.72H140.512ZM141.512 501H57.216V503H141.512V501Z" fill="#060100" mask="url(#path-3-outside-2_162_92)"/>
<mask id="path-5-outside-3_162_92" maskUnits="userSpaceOnUse" x="144" y="122" width="87" height="219" fill="black">
<rect fill="white" x="144" y="122" width="87" height="219"/>
<path d="M145.216 340V336.72L151.776 334.096C156.149 332.565 158.992 330.488 160.304 327.864C161.835 325.24 162.6 321.741 162.6 317.368V146.152C162.6 141.779 161.944 138.28 160.632 135.656C159.32 133.032 156.368 130.955 151.776 129.424L145.216 126.8V123.52H229.512V126.8L222.952 129.424C218.579 130.955 215.627 133.032 214.096 135.656C212.784 138.28 212.128 141.779 212.128 146.152V317.368C212.128 321.741 212.784 325.24 214.096 327.864C215.627 330.269 218.579 332.347 222.952 334.096L229.512 336.72V340H145.216Z"/>
</mask>
<path d="M145.216 340H144.216V341H145.216V340ZM145.216 336.72L144.845 335.792L144.216 336.043V336.72H145.216ZM151.776 334.096L151.446 333.152L151.425 333.159L151.405 333.168L151.776 334.096ZM160.304 327.864L159.44 327.36L159.424 327.388L159.41 327.417L160.304 327.864ZM160.632 135.656L161.526 135.209L161.526 135.209L160.632 135.656ZM151.776 129.424L151.405 130.352L151.432 130.363L151.46 130.373L151.776 129.424ZM145.216 126.8H144.216V127.477L144.845 127.728L145.216 126.8ZM145.216 123.52V122.52H144.216V123.52H145.216ZM229.512 123.52H230.512V122.52H229.512V123.52ZM229.512 126.8L229.883 127.728L230.512 127.477V126.8H229.512ZM222.952 129.424L223.282 130.368L223.303 130.361L223.323 130.352L222.952 129.424ZM214.096 135.656L213.232 135.152L213.216 135.18L213.202 135.209L214.096 135.656ZM214.096 327.864L213.202 328.311L213.225 328.357L213.252 328.401L214.096 327.864ZM222.952 334.096L222.581 335.024L222.581 335.024L222.952 334.096ZM229.512 336.72H230.512V336.043L229.883 335.792L229.512 336.72ZM229.512 340V341H230.512V340H229.512ZM146.216 340V336.72H144.216V340H146.216ZM145.587 337.648L152.147 335.024L151.405 333.168L144.845 335.792L145.587 337.648ZM152.106 335.04C156.588 333.471 159.718 331.271 161.198 328.311L159.41 327.417C158.266 329.705 155.711 331.659 151.446 333.152L152.106 335.04ZM161.168 328.368C162.818 325.538 163.6 321.845 163.6 317.368H161.6C161.6 321.638 160.851 324.942 159.44 327.36L161.168 328.368ZM163.6 317.368V146.152H161.6V317.368H163.6ZM163.6 146.152C163.6 141.693 162.934 138.023 161.526 135.209L159.738 136.103C160.954 138.537 161.6 141.864 161.6 146.152H163.6ZM161.526 135.209C160.039 132.233 156.781 130.038 152.092 128.475L151.46 130.373C155.955 131.871 158.601 133.831 159.738 136.103L161.526 135.209ZM152.147 128.496L145.587 125.872L144.845 127.728L151.405 130.352L152.147 128.496ZM146.216 126.8V123.52H144.216V126.8H146.216ZM145.216 124.52H229.512V122.52H145.216V124.52ZM228.512 123.52V126.8H230.512V123.52H228.512ZM229.141 125.872L222.581 128.496L223.323 130.352L229.883 127.728L229.141 125.872ZM222.622 128.48C218.137 130.05 214.932 132.239 213.232 135.152L214.96 136.16C216.322 133.825 219.02 131.86 223.282 130.368L222.622 128.48ZM213.202 135.209C211.794 138.023 211.128 141.693 211.128 146.152H213.128C213.128 141.864 213.774 138.537 214.99 136.103L213.202 135.209ZM211.128 146.152V317.368H213.128V146.152H211.128ZM211.128 317.368C211.128 321.827 211.794 325.497 213.202 328.311L214.99 327.417C213.774 324.983 213.128 321.656 213.128 317.368H211.128ZM213.252 328.401C214.948 331.065 218.128 333.243 222.581 335.024L223.323 333.168C219.029 331.45 216.306 329.474 214.94 327.327L213.252 328.401ZM222.581 335.024L229.141 337.648L229.883 335.792L223.323 333.168L222.581 335.024ZM228.512 336.72V340H230.512V336.72H228.512ZM229.512 339H145.216V341H229.512V339Z" fill="#060100" mask="url(#path-5-outside-3_162_92)"/>
<mask id="path-7-outside-4_162_92" maskUnits="userSpaceOnUse" x="144" y="284" width="87" height="219" fill="black">
<rect fill="white" x="144" y="284" width="87" height="219"/>
<path d="M145.216 502V498.72L151.776 496.096C156.149 494.565 158.992 492.488 160.304 489.864C161.835 487.24 162.6 483.741 162.6 479.368V308.152C162.6 303.779 161.944 300.28 160.632 297.656C159.32 295.032 156.368 292.955 151.776 291.424L145.216 288.8V285.52H229.512V288.8L222.952 291.424C218.579 292.955 215.627 295.032 214.096 297.656C212.784 300.28 212.128 303.779 212.128 308.152V479.368C212.128 483.741 212.784 487.24 214.096 489.864C215.627 492.269 218.579 494.347 222.952 496.096L229.512 498.72V502H145.216Z"/>
</mask>
<path d="M145.216 502H144.216V503H145.216V502ZM145.216 498.72L144.845 497.792L144.216 498.043V498.72H145.216ZM151.776 496.096L151.446 495.152L151.425 495.159L151.405 495.168L151.776 496.096ZM160.304 489.864L159.44 489.36L159.424 489.388L159.41 489.417L160.304 489.864ZM160.632 297.656L161.526 297.209L161.526 297.209L160.632 297.656ZM151.776 291.424L151.405 292.352L151.432 292.363L151.46 292.373L151.776 291.424ZM145.216 288.8H144.216V289.477L144.845 289.728L145.216 288.8ZM145.216 285.52V284.52H144.216V285.52H145.216ZM229.512 285.52H230.512V284.52H229.512V285.52ZM229.512 288.8L229.883 289.728L230.512 289.477V288.8H229.512ZM222.952 291.424L223.282 292.368L223.303 292.361L223.323 292.352L222.952 291.424ZM214.096 297.656L213.232 297.152L213.216 297.18L213.202 297.209L214.096 297.656ZM214.096 489.864L213.202 490.311L213.225 490.357L213.252 490.401L214.096 489.864ZM222.952 496.096L222.581 497.024L222.581 497.024L222.952 496.096ZM229.512 498.72H230.512V498.043L229.883 497.792L229.512 498.72ZM229.512 502V503H230.512V502H229.512ZM146.216 502V498.72H144.216V502H146.216ZM145.587 499.648L152.147 497.024L151.405 495.168L144.845 497.792L145.587 499.648ZM152.106 497.04C156.588 495.471 159.718 493.271 161.198 490.311L159.41 489.417C158.266 491.705 155.711 493.659 151.446 495.152L152.106 497.04ZM161.168 490.368C162.818 487.538 163.6 483.845 163.6 479.368H161.6C161.6 483.638 160.851 486.942 159.44 489.36L161.168 490.368ZM163.6 479.368V308.152H161.6V479.368H163.6ZM163.6 308.152C163.6 303.693 162.934 300.023 161.526 297.209L159.738 298.103C160.954 300.537 161.6 303.864 161.6 308.152H163.6ZM161.526 297.209C160.039 294.233 156.781 292.038 152.092 290.475L151.46 292.373C155.955 293.871 158.601 295.831 159.738 298.103L161.526 297.209ZM152.147 290.496L145.587 287.872L144.845 289.728L151.405 292.352L152.147 290.496ZM146.216 288.8V285.52H144.216V288.8H146.216ZM145.216 286.52H229.512V284.52H145.216V286.52ZM228.512 285.52V288.8H230.512V285.52H228.512ZM229.141 287.872L222.581 290.496L223.323 292.352L229.883 289.728L229.141 287.872ZM222.622 290.48C218.137 292.05 214.932 294.239 213.232 297.152L214.96 298.16C216.322 295.825 219.02 293.86 223.282 292.368L222.622 290.48ZM213.202 297.209C211.794 300.023 211.128 303.693 211.128 308.152H213.128C213.128 303.864 213.774 300.537 214.99 298.103L213.202 297.209ZM211.128 308.152V479.368H213.128V308.152H211.128ZM211.128 479.368C211.128 483.827 211.794 487.497 213.202 490.311L214.99 489.417C213.774 486.983 213.128 483.656 213.128 479.368H211.128ZM213.252 490.401C214.948 493.065 218.128 495.243 222.581 497.024L223.323 495.168C219.029 493.45 216.306 491.474 214.94 489.327L213.252 490.401ZM222.581 497.024L229.141 499.648L229.883 497.792L223.323 495.168L222.581 497.024ZM228.512 498.72V502H230.512V498.72H228.512ZM229.512 501H145.216V503H229.512V501Z" fill="#060100" mask="url(#path-7-outside-4_162_92)"/>
<rect y="267" width="275" height="77" fill="#E9E4E0"/>
<path d="M43.56 293.68C44.1733 293.707 44.96 293.733 45.92 293.76C46.9067 293.787 47.88 293.8 48.84 293.8C50.12 293.8 51.3333 293.787 52.48 293.76C53.6533 293.733 54.48 293.72 54.96 293.72C58.3467 293.72 60.88 294.453 62.56 295.92C64.24 297.387 65.08 299.28 65.08 301.6C65.08 302.56 64.9067 303.573 64.56 304.64C64.24 305.68 63.6667 306.653 62.84 307.56C62.0133 308.44 60.8933 309.16 59.48 309.72C58.0667 310.28 56.2667 310.56 54.08 310.56H50.16V309.76H53.68C55.4667 309.76 56.8267 309.4 57.76 308.68C58.72 307.96 59.36 307.013 59.68 305.84C60.0267 304.667 60.2 303.4 60.2 302.04C60.2 299.507 59.7467 297.613 58.84 296.36C57.9333 295.107 56.36 294.48 54.12 294.48C52.9733 294.48 52.2133 294.707 51.84 295.16C51.4933 295.613 51.32 296.533 51.32 297.92V317.68C51.32 318.667 51.4267 319.413 51.64 319.92C51.8533 320.4 52.2533 320.72 52.84 320.88C53.4267 321.04 54.2933 321.133 55.44 321.16V322C54.72 321.947 53.7867 321.92 52.64 321.92C51.4933 321.893 50.3067 321.88 49.08 321.88C48.0133 321.88 46.9867 321.893 46 321.92C45.04 321.92 44.2267 321.947 43.56 322V321.2C44.4667 321.147 45.1467 321.04 45.6 320.88C46.0533 320.72 46.3467 320.4 46.48 319.92C46.64 319.44 46.72 318.72 46.72 317.76V297.92C46.72 296.933 46.64 296.213 46.48 295.76C46.3467 295.28 46.04 294.96 45.56 294.8C45.1067 294.613 44.44 294.507 43.56 294.48V293.68ZM67.6225 293.68C68.2358 293.707 69.0225 293.733 69.9825 293.76C70.9692 293.787 71.9425 293.8 72.9025 293.8C74.1825 293.8 75.3958 293.787 76.5425 293.76C77.7158 293.733 78.5425 293.72 79.0225 293.72C81.2892 293.72 83.1692 294.013 84.6625 294.6C86.1825 295.187 87.3025 296.013 88.0225 297.08C88.7692 298.12 89.1425 299.32 89.1425 300.68C89.1425 301.507 88.9692 302.387 88.6225 303.32C88.3025 304.227 87.7292 305.08 86.9025 305.88C86.0758 306.653 84.9558 307.293 83.5425 307.8C82.1292 308.307 80.3292 308.56 78.1425 308.56H74.3025V307.76H77.7425C79.5292 307.76 80.8892 307.467 81.8225 306.88C82.7825 306.267 83.4225 305.467 83.7425 304.48C84.0892 303.467 84.2625 302.347 84.2625 301.12C84.2625 299.013 83.8092 297.387 82.9025 296.24C81.9958 295.067 80.4225 294.48 78.1825 294.48C77.0358 294.48 76.2758 294.707 75.9025 295.16C75.5558 295.613 75.3825 296.533 75.3825 297.92V317.76C75.3825 318.72 75.4625 319.44 75.6225 319.92C75.7825 320.4 76.0892 320.72 76.5425 320.88C76.9958 321.04 77.6625 321.147 78.5425 321.2V322C77.9025 321.947 77.0892 321.92 76.1025 321.92C75.1425 321.893 74.1558 321.88 73.1425 321.88C72.0225 321.88 70.9692 321.893 69.9825 321.92C69.0225 321.92 68.2358 321.947 67.6225 322V321.2C68.5292 321.147 69.2092 321.04 69.6625 320.88C70.1158 320.72 70.4092 320.4 70.5425 319.92C70.7025 319.44 70.7825 318.72 70.7825 317.76V297.92C70.7825 296.933 70.7025 296.213 70.5425 295.76C70.4092 295.28 70.1025 294.96 69.6225 294.8C69.1692 294.613 68.5025 294.507 67.6225 294.48V293.68ZM74.3825 307.88C75.7425 307.933 76.8358 308 77.6625 308.08C78.4892 308.133 79.1825 308.187 79.7425 308.24C80.3025 308.293 80.8225 308.36 81.3025 308.44C83.3025 308.707 84.7558 309.24 85.6625 310.04C86.5958 310.84 87.2358 312.067 87.5825 313.72L88.5825 317.8C88.8225 318.947 89.0758 319.76 89.3425 320.24C89.6358 320.72 90.0625 320.96 90.6225 320.96C91.0492 320.933 91.3958 320.813 91.6625 320.6C91.9558 320.36 92.2625 320.04 92.5825 319.64L93.1425 320.08C92.5292 320.907 91.8892 321.533 91.2225 321.96C90.5558 322.36 89.6625 322.56 88.5425 322.56C87.3958 322.56 86.4092 322.267 85.5825 321.68C84.7825 321.067 84.2092 319.92 83.8625 318.24L83.0625 314.24C82.8225 313.093 82.5558 312.107 82.2625 311.28C81.9692 310.427 81.5558 309.76 81.0225 309.28C80.5158 308.8 79.7692 308.56 78.7825 308.56H74.4625L74.3825 307.88ZM107.786 293.12C110.399 293.12 112.693 293.693 114.666 294.84C116.666 295.987 118.213 297.64 119.306 299.8C120.399 301.933 120.946 304.533 120.946 307.6C120.946 310.587 120.386 313.2 119.266 315.44C118.146 317.68 116.586 319.427 114.586 320.68C112.586 321.933 110.306 322.56 107.746 322.56C105.106 322.56 102.799 321.987 100.826 320.84C98.8526 319.693 97.3193 318.04 96.2259 315.88C95.1326 313.72 94.5859 311.12 94.5859 308.08C94.5859 305.093 95.1459 302.48 96.2659 300.24C97.4126 298 98.9726 296.253 100.946 295C102.919 293.747 105.199 293.12 107.786 293.12ZM107.626 293.84C105.973 293.84 104.533 294.44 103.306 295.64C102.079 296.84 101.133 298.493 100.466 300.6C99.7993 302.707 99.4659 305.147 99.4659 307.92C99.4659 310.747 99.8393 313.213 100.586 315.32C101.333 317.4 102.346 319.013 103.626 320.16C104.906 321.28 106.333 321.84 107.906 321.84C109.559 321.84 110.986 321.24 112.186 320.04C113.413 318.84 114.359 317.187 115.026 315.08C115.719 312.947 116.066 310.507 116.066 307.76C116.066 304.907 115.679 302.44 114.906 300.36C114.159 298.28 113.146 296.68 111.866 295.56C110.613 294.413 109.199 293.84 107.626 293.84ZM121.785 329.52V328.76C122.932 328.707 123.905 328.4 124.705 327.84C125.505 327.307 126.105 326.4 126.505 325.12C126.905 323.84 127.105 322.093 127.105 319.88V297.92C127.105 296.933 127.025 296.213 126.865 295.76C126.732 295.28 126.438 294.96 125.985 294.8C125.532 294.613 124.852 294.507 123.945 294.48V293.68C124.558 293.707 125.345 293.733 126.305 293.76C127.265 293.787 128.278 293.8 129.345 293.8C130.385 293.8 131.398 293.787 132.385 293.76C133.398 293.733 134.225 293.707 134.865 293.68V294.48C133.985 294.507 133.318 294.613 132.865 294.8C132.412 294.96 132.105 295.28 131.945 295.76C131.785 296.213 131.705 296.933 131.705 297.92V312.56C131.705 313.653 131.692 314.84 131.665 316.12C131.665 317.4 131.612 318.64 131.505 319.84C131.425 321.04 131.265 322.093 131.025 323C130.545 324.867 129.518 326.413 127.945 327.64C126.398 328.893 124.345 329.52 121.785 329.52ZM158.18 293.68C158.073 294.693 157.993 295.68 157.94 296.64C157.913 297.573 157.9 298.293 157.9 298.8C157.9 299.307 157.913 299.787 157.94 300.24C157.966 300.693 157.993 301.067 158.02 301.36H157.1C156.913 299.653 156.62 298.307 156.22 297.32C155.846 296.333 155.273 295.64 154.5 295.24C153.753 294.813 152.7 294.6 151.34 294.6H148.58C147.726 294.6 147.073 294.68 146.62 294.84C146.193 294.973 145.9 295.267 145.74 295.72C145.58 296.147 145.5 296.827 145.5 297.76V317.92C145.5 318.827 145.58 319.507 145.74 319.96C145.9 320.413 146.193 320.72 146.62 320.88C147.073 321.013 147.726 321.08 148.58 321.08H151.18C152.7 321.08 153.9 320.84 154.78 320.36C155.686 319.88 156.366 319.093 156.82 318C157.3 316.907 157.66 315.413 157.9 313.52H158.82C158.74 314.293 158.7 315.307 158.7 316.56C158.7 317.093 158.713 317.867 158.74 318.88C158.793 319.893 158.873 320.933 158.98 322C157.62 321.947 156.086 321.92 154.38 321.92C152.673 321.893 151.153 321.88 149.82 321.88C149.206 321.88 148.42 321.88 147.46 321.88C146.5 321.88 145.46 321.893 144.34 321.92C143.246 321.92 142.126 321.933 140.98 321.96C139.86 321.96 138.78 321.973 137.74 322V321.2C138.646 321.147 139.326 321.04 139.78 320.88C140.233 320.72 140.526 320.4 140.66 319.92C140.82 319.44 140.9 318.72 140.9 317.76V297.92C140.9 296.933 140.82 296.213 140.66 295.76C140.526 295.28 140.22 294.96 139.74 294.8C139.286 294.613 138.62 294.507 137.74 294.48V293.68C138.78 293.707 139.86 293.733 140.98 293.76C142.126 293.76 143.246 293.773 144.34 293.8C145.46 293.8 146.5 293.8 147.46 293.8C148.42 293.8 149.206 293.8 149.82 293.8C151.046 293.8 152.433 293.8 153.98 293.8C155.553 293.773 156.953 293.733 158.18 293.68ZM151.54 307.36C151.54 307.36 151.54 307.493 151.54 307.76C151.54 308.027 151.54 308.16 151.54 308.16H144.3C144.3 308.16 144.3 308.027 144.3 307.76C144.3 307.493 144.3 307.36 144.3 307.36H151.54ZM152.7 302.08C152.593 303.6 152.54 304.76 152.54 305.56C152.566 306.36 152.58 307.093 152.58 307.76C152.58 308.427 152.593 309.16 152.62 309.96C152.646 310.76 152.713 311.92 152.82 313.44H151.9C151.766 312.56 151.593 311.72 151.38 310.92C151.166 310.093 150.78 309.427 150.22 308.92C149.686 308.413 148.846 308.16 147.7 308.16V307.36C148.553 307.36 149.22 307.187 149.7 306.84C150.206 306.493 150.593 306.04 150.86 305.48C151.126 304.92 151.313 304.347 151.42 303.76C151.553 303.147 151.673 302.587 151.78 302.08H152.7ZM176.067 293.12C177.827 293.12 179.267 293.387 180.387 293.92C181.534 294.427 182.547 295.027 183.427 295.72C183.961 296.12 184.361 296.173 184.627 295.88C184.921 295.56 185.121 294.827 185.227 293.68H186.147C186.094 294.693 186.054 295.92 186.027 297.36C186.001 298.773 185.987 300.667 185.987 303.04H185.067C184.881 301.867 184.694 300.907 184.507 300.16C184.347 299.413 184.121 298.773 183.827 298.24C183.561 297.707 183.187 297.187 182.707 296.68C181.934 295.72 180.987 295.027 179.867 294.6C178.747 294.173 177.561 293.96 176.307 293.96C174.947 293.96 173.747 294.307 172.707 295C171.667 295.667 170.787 296.627 170.067 297.88C169.374 299.133 168.841 300.613 168.467 302.32C168.094 304.027 167.907 305.893 167.907 307.92C167.907 310 168.107 311.893 168.507 313.6C168.907 315.28 169.481 316.733 170.227 317.96C171.001 319.16 171.921 320.093 172.987 320.76C174.081 321.4 175.294 321.72 176.627 321.72C177.721 321.72 178.854 321.507 180.027 321.08C181.201 320.627 182.134 319.947 182.827 319.04C183.574 318.24 184.081 317.347 184.347 316.36C184.641 315.347 184.881 313.973 185.067 312.24H185.987C185.987 314.693 186.001 316.68 186.027 318.2C186.054 319.693 186.094 320.96 186.147 322H185.227C185.121 320.853 184.934 320.133 184.667 319.84C184.427 319.547 184.014 319.587 183.427 319.96C182.441 320.653 181.387 321.267 180.267 321.8C179.174 322.307 177.761 322.56 176.027 322.56C173.387 322.56 171.081 321.987 169.107 320.84C167.134 319.693 165.601 318.04 164.507 315.88C163.414 313.72 162.867 311.12 162.867 308.08C162.867 305.093 163.427 302.48 164.547 300.24C165.694 298 167.254 296.253 169.227 295C171.201 293.747 173.481 293.12 176.067 293.12ZM213.001 293.68C212.894 294.8 212.814 295.893 212.761 296.96C212.734 298 212.721 298.8 212.721 299.36C212.721 299.973 212.734 300.56 212.761 301.12C212.787 301.68 212.814 302.16 212.841 302.56H211.921C211.654 300.56 211.294 298.987 210.841 297.84C210.414 296.693 209.787 295.867 208.961 295.36C208.134 294.853 206.947 294.6 205.401 294.6H203.681V317.4C203.681 318.467 203.774 319.267 203.961 319.8C204.174 320.333 204.574 320.693 205.161 320.88C205.774 321.04 206.654 321.147 207.801 321.2V322C207.054 321.947 206.094 321.92 204.921 321.92C203.747 321.893 202.547 321.88 201.321 321.88C200.041 321.88 198.827 321.893 197.681 321.92C196.561 321.92 195.654 321.947 194.961 322V321.2C196.107 321.147 196.974 321.04 197.561 320.88C198.147 320.693 198.547 320.333 198.761 319.8C198.974 319.267 199.081 318.467 199.081 317.4V294.6H197.321C195.827 294.6 194.654 294.853 193.801 295.36C192.947 295.867 192.307 296.693 191.881 297.84C191.454 298.987 191.107 300.56 190.841 302.56H189.921C189.974 302.16 190.001 301.68 190.001 301.12C190.027 300.56 190.041 299.973 190.041 299.36C190.041 298.8 190.014 298 189.961 296.96C189.934 295.893 189.867 294.8 189.761 293.68C190.907 293.707 192.161 293.733 193.521 293.76C194.881 293.787 196.254 293.8 197.641 293.8C199.027 293.8 200.281 293.8 201.401 293.8C202.521 293.8 203.761 293.8 205.121 293.8C206.481 293.8 207.854 293.787 209.241 293.76C210.627 293.733 211.881 293.707 213.001 293.68ZM224.709 293.2C226.123 293.2 227.203 293.36 227.949 293.68C228.696 294 229.349 294.347 229.909 294.72C230.229 294.907 230.483 295.053 230.669 295.16C230.883 295.24 231.083 295.28 231.269 295.28C231.536 295.28 231.723 295.133 231.829 294.84C231.963 294.547 232.069 294.107 232.149 293.52H233.069C233.043 294 233.003 294.573 232.949 295.24C232.923 295.88 232.896 296.733 232.869 297.8C232.869 298.867 232.869 300.267 232.869 302H231.949C231.869 300.693 231.576 299.427 231.069 298.2C230.589 296.973 229.869 295.973 228.909 295.2C227.976 294.427 226.776 294.04 225.309 294.04C223.949 294.04 222.816 294.453 221.909 295.28C221.029 296.08 220.589 297.147 220.589 298.48C220.589 299.653 220.883 300.64 221.469 301.44C222.056 302.213 222.856 302.947 223.869 303.64C224.909 304.307 226.083 305.053 227.389 305.88C228.723 306.733 229.923 307.587 230.989 308.44C232.056 309.267 232.896 310.187 233.509 311.2C234.123 312.213 234.429 313.44 234.429 314.88C234.429 316.613 234.016 318.053 233.189 319.2C232.389 320.32 231.309 321.16 229.949 321.72C228.589 322.28 227.096 322.56 225.469 322.56C223.976 322.56 222.789 322.4 221.909 322.08C221.029 321.76 220.283 321.427 219.669 321.08C219.083 320.707 218.629 320.52 218.309 320.52C218.043 320.52 217.843 320.667 217.709 320.96C217.603 321.253 217.509 321.693 217.429 322.28H216.509C216.563 321.693 216.589 321.013 216.589 320.24C216.616 319.44 216.629 318.4 216.629 317.12C216.656 315.84 216.669 314.227 216.669 312.28H217.589C217.696 313.933 217.989 315.48 218.469 316.92C218.976 318.36 219.736 319.52 220.749 320.4C221.789 321.253 223.163 321.68 224.869 321.68C225.776 321.68 226.616 321.507 227.389 321.16C228.163 320.813 228.789 320.267 229.269 319.52C229.749 318.773 229.989 317.813 229.989 316.64C229.989 315.547 229.723 314.587 229.189 313.76C228.683 312.933 227.963 312.173 227.029 311.48C226.123 310.76 225.056 310.027 223.829 309.28C222.576 308.48 221.403 307.68 220.309 306.88C219.216 306.08 218.336 305.147 217.669 304.08C217.029 303.013 216.709 301.747 216.709 300.28C216.709 298.653 217.083 297.32 217.829 296.28C218.603 295.24 219.589 294.467 220.789 293.96C222.016 293.453 223.323 293.2 224.709 293.2Z" fill="#060100"/>
</svg>
