<svg width="275" height="612" viewBox="0 0 275 612" fill="none" xmlns="http://www.w3.org/2000/svg">
<mask id="path-1-outside-1_162_79" maskUnits="userSpaceOnUse" x="6" y="122" width="87" height="219" fill="black">
<rect fill="white" x="6" y="122" width="87" height="219"/>
<path d="M7.216 340V336.72L13.776 334.096C18.1493 332.565 20.992 330.488 22.304 327.864C23.8347 325.24 24.6 321.741 24.6 317.368V146.152C24.6 141.779 23.944 138.28 22.632 135.656C21.32 133.032 18.368 130.955 13.776 129.424L7.216 126.8V123.52H91.512V126.8L84.952 129.424C80.5787 130.955 77.6267 133.032 76.096 135.656C74.784 138.28 74.128 141.779 74.128 146.152V317.368C74.128 321.741 74.784 325.24 76.096 327.864C77.6267 330.269 80.5787 332.347 84.952 334.096L91.512 336.72V340H7.216Z"/>
</mask>
<path d="M7.216 340H6.216V341H7.216V340ZM7.216 336.72L6.84461 335.792L6.216 336.043V336.72H7.216ZM13.776 334.096L13.4457 333.152L13.425 333.159L13.4046 333.168L13.776 334.096ZM22.304 327.864L21.4402 327.36L21.424 327.388L21.4096 327.417L22.304 327.864ZM22.632 135.656L23.5264 135.209L23.5264 135.209L22.632 135.656ZM13.776 129.424L13.4046 130.352L13.4319 130.363L13.4598 130.373L13.776 129.424ZM7.216 126.8H6.216V127.477L6.84461 127.728L7.216 126.8ZM7.216 123.52V122.52H6.216V123.52H7.216ZM91.512 123.52H92.512V122.52H91.512V123.52ZM91.512 126.8L91.8834 127.728L92.512 127.477V126.8H91.512ZM84.952 129.424L85.2824 130.368L85.303 130.361L85.3234 130.352L84.952 129.424ZM76.096 135.656L75.2322 135.152L75.216 135.18L75.2016 135.209L76.096 135.656ZM76.096 327.864L75.2016 328.311L75.2246 328.357L75.2523 328.401L76.096 327.864ZM84.952 334.096L84.5806 335.024L84.5806 335.024L84.952 334.096ZM91.512 336.72H92.512V336.043L91.8834 335.792L91.512 336.72ZM91.512 340V341H92.512V340H91.512ZM8.216 340V336.72H6.216V340H8.216ZM7.58739 337.648L14.1474 335.024L13.4046 333.168L6.84461 335.792L7.58739 337.648ZM14.1064 335.04C18.5881 333.471 21.7183 331.271 23.1984 328.311L21.4096 327.417C20.2657 329.705 17.7105 331.659 13.4457 333.152L14.1064 335.04ZM23.1678 328.368C24.8185 325.538 25.6 321.845 25.6 317.368H23.6C23.6 321.638 22.8509 324.942 21.4402 327.36L23.1678 328.368ZM25.6 317.368V146.152H23.6V317.368H25.6ZM25.6 146.152C25.6 141.693 24.9335 138.023 23.5264 135.209L21.7376 136.103C22.9545 138.537 23.6 141.864 23.6 146.152H25.6ZM23.5264 135.209C22.0386 132.233 18.7805 130.038 14.0922 128.475L13.4598 130.373C17.9555 131.871 20.6014 133.831 21.7376 136.103L23.5264 135.209ZM14.1474 128.496L7.58739 125.872L6.84461 127.728L13.4046 130.352L14.1474 128.496ZM8.216 126.8V123.52H6.216V126.8H8.216ZM7.216 124.52H91.512V122.52H7.216V124.52ZM90.512 123.52V126.8H92.512V123.52H90.512ZM91.1406 125.872L84.5806 128.496L85.3234 130.352L91.8834 127.728L91.1406 125.872ZM84.6217 128.48C80.137 130.05 76.9318 132.239 75.2322 135.152L76.9598 136.16C78.3216 133.825 81.0204 131.86 85.2824 130.368L84.6217 128.48ZM75.2016 135.209C73.7945 138.023 73.128 141.693 73.128 146.152H75.128C75.128 141.864 75.7735 138.537 76.9904 136.103L75.2016 135.209ZM73.128 146.152V317.368H75.128V146.152H73.128ZM73.128 317.368C73.128 321.827 73.7945 325.497 75.2016 328.311L76.9904 327.417C75.7735 324.983 75.128 321.656 75.128 317.368H73.128ZM75.2523 328.401C76.9476 331.065 80.1281 333.243 84.5806 335.024L85.3234 333.168C81.0293 331.45 78.3057 329.474 76.9397 327.327L75.2523 328.401ZM84.5806 335.024L91.1406 337.648L91.8834 335.792L85.3234 333.168L84.5806 335.024ZM90.512 336.72V340H92.512V336.72H90.512ZM91.512 339H7.216V341H91.512V339Z" fill="#060100" mask="url(#path-1-outside-1_162_79)"/>
<mask id="path-3-outside-2_162_79" maskUnits="userSpaceOnUse" x="6" y="284" width="87" height="219" fill="black">
<rect fill="white" x="6" y="284" width="87" height="219"/>
<path d="M7.216 502V498.72L13.776 496.096C18.1493 494.565 20.992 492.488 22.304 489.864C23.8347 487.24 24.6 483.741 24.6 479.368V308.152C24.6 303.779 23.944 300.28 22.632 297.656C21.32 295.032 18.368 292.955 13.776 291.424L7.216 288.8V285.52H91.512V288.8L84.952 291.424C80.5787 292.955 77.6267 295.032 76.096 297.656C74.784 300.28 74.128 303.779 74.128 308.152V479.368C74.128 483.741 74.784 487.24 76.096 489.864C77.6267 492.269 80.5787 494.347 84.952 496.096L91.512 498.72V502H7.216Z"/>
</mask>
<path d="M7.216 502H6.216V503H7.216V502ZM7.216 498.72L6.84461 497.792L6.216 498.043V498.72H7.216ZM13.776 496.096L13.4457 495.152L13.425 495.159L13.4046 495.168L13.776 496.096ZM22.304 489.864L21.4402 489.36L21.424 489.388L21.4096 489.417L22.304 489.864ZM22.632 297.656L23.5264 297.209L23.5264 297.209L22.632 297.656ZM13.776 291.424L13.4046 292.352L13.4319 292.363L13.4598 292.373L13.776 291.424ZM7.216 288.8H6.216V289.477L6.84461 289.728L7.216 288.8ZM7.216 285.52V284.52H6.216V285.52H7.216ZM91.512 285.52H92.512V284.52H91.512V285.52ZM91.512 288.8L91.8834 289.728L92.512 289.477V288.8H91.512ZM84.952 291.424L85.2824 292.368L85.303 292.361L85.3234 292.352L84.952 291.424ZM76.096 297.656L75.2322 297.152L75.216 297.18L75.2016 297.209L76.096 297.656ZM76.096 489.864L75.2016 490.311L75.2246 490.357L75.2523 490.401L76.096 489.864ZM84.952 496.096L84.5806 497.024L84.5806 497.024L84.952 496.096ZM91.512 498.72H92.512V498.043L91.8834 497.792L91.512 498.72ZM91.512 502V503H92.512V502H91.512ZM8.216 502V498.72H6.216V502H8.216ZM7.58739 499.648L14.1474 497.024L13.4046 495.168L6.84461 497.792L7.58739 499.648ZM14.1064 497.04C18.5881 495.471 21.7183 493.271 23.1984 490.311L21.4096 489.417C20.2657 491.705 17.7105 493.659 13.4457 495.152L14.1064 497.04ZM23.1678 490.368C24.8185 487.538 25.6 483.845 25.6 479.368H23.6C23.6 483.638 22.8509 486.942 21.4402 489.36L23.1678 490.368ZM25.6 479.368V308.152H23.6V479.368H25.6ZM25.6 308.152C25.6 303.693 24.9335 300.023 23.5264 297.209L21.7376 298.103C22.9545 300.537 23.6 303.864 23.6 308.152H25.6ZM23.5264 297.209C22.0386 294.233 18.7805 292.038 14.0922 290.475L13.4598 292.373C17.9555 293.871 20.6014 295.831 21.7376 298.103L23.5264 297.209ZM14.1474 290.496L7.58739 287.872L6.84461 289.728L13.4046 292.352L14.1474 290.496ZM8.216 288.8V285.52H6.216V288.8H8.216ZM7.216 286.52H91.512V284.52H7.216V286.52ZM90.512 285.52V288.8H92.512V285.52H90.512ZM91.1406 287.872L84.5806 290.496L85.3234 292.352L91.8834 289.728L91.1406 287.872ZM84.6217 290.48C80.137 292.05 76.9318 294.239 75.2322 297.152L76.9598 298.16C78.3216 295.825 81.0204 293.86 85.2824 292.368L84.6217 290.48ZM75.2016 297.209C73.7945 300.023 73.128 303.693 73.128 308.152H75.128C75.128 303.864 75.7735 300.537 76.9904 298.103L75.2016 297.209ZM73.128 308.152V479.368H75.128V308.152H73.128ZM73.128 479.368C73.128 483.827 73.7945 487.497 75.2016 490.311L76.9904 489.417C75.7735 486.983 75.128 483.656 75.128 479.368H73.128ZM75.2523 490.401C76.9476 493.065 80.1281 495.243 84.5806 497.024L85.3234 495.168C81.0293 493.45 78.3057 491.474 76.9397 489.327L75.2523 490.401ZM84.5806 497.024L91.1406 499.648L91.8834 497.792L85.3234 495.168L84.5806 497.024ZM90.512 498.72V502H92.512V498.72H90.512ZM91.512 501H7.216V503H91.512V501Z" fill="#060100" mask="url(#path-3-outside-2_162_79)"/>
<mask id="path-5-outside-3_162_79" maskUnits="userSpaceOnUse" x="94" y="122" width="87" height="219" fill="black">
<rect fill="white" x="94" y="122" width="87" height="219"/>
<path d="M95.216 340V336.72L101.776 334.096C106.149 332.565 108.992 330.488 110.304 327.864C111.835 325.24 112.6 321.741 112.6 317.368V146.152C112.6 141.779 111.944 138.28 110.632 135.656C109.32 133.032 106.368 130.955 101.776 129.424L95.216 126.8V123.52H179.512V126.8L172.952 129.424C168.579 130.955 165.627 133.032 164.096 135.656C162.784 138.28 162.128 141.779 162.128 146.152V317.368C162.128 321.741 162.784 325.24 164.096 327.864C165.627 330.269 168.579 332.347 172.952 334.096L179.512 336.72V340H95.216Z"/>
</mask>
<path d="M95.216 340H94.216V341H95.216V340ZM95.216 336.72L94.8446 335.792L94.216 336.043V336.72H95.216ZM101.776 334.096L101.446 333.152L101.425 333.159L101.405 333.168L101.776 334.096ZM110.304 327.864L109.44 327.36L109.424 327.388L109.41 327.417L110.304 327.864ZM110.632 135.656L111.526 135.209L111.526 135.209L110.632 135.656ZM101.776 129.424L101.405 130.352L101.432 130.363L101.46 130.373L101.776 129.424ZM95.216 126.8H94.216V127.477L94.8446 127.728L95.216 126.8ZM95.216 123.52V122.52H94.216V123.52H95.216ZM179.512 123.52H180.512V122.52H179.512V123.52ZM179.512 126.8L179.883 127.728L180.512 127.477V126.8H179.512ZM172.952 129.424L173.282 130.368L173.303 130.361L173.323 130.352L172.952 129.424ZM164.096 135.656L163.232 135.152L163.216 135.18L163.202 135.209L164.096 135.656ZM164.096 327.864L163.202 328.311L163.225 328.357L163.252 328.401L164.096 327.864ZM172.952 334.096L172.581 335.024L172.581 335.024L172.952 334.096ZM179.512 336.72H180.512V336.043L179.883 335.792L179.512 336.72ZM179.512 340V341H180.512V340H179.512ZM96.216 340V336.72H94.216V340H96.216ZM95.5874 337.648L102.147 335.024L101.405 333.168L94.8446 335.792L95.5874 337.648ZM102.106 335.04C106.588 333.471 109.718 331.271 111.198 328.311L109.41 327.417C108.266 329.705 105.711 331.659 101.446 333.152L102.106 335.04ZM111.168 328.368C112.818 325.538 113.6 321.845 113.6 317.368H111.6C111.6 321.638 110.851 324.942 109.44 327.36L111.168 328.368ZM113.6 317.368V146.152H111.6V317.368H113.6ZM113.6 146.152C113.6 141.693 112.934 138.023 111.526 135.209L109.738 136.103C110.954 138.537 111.6 141.864 111.6 146.152H113.6ZM111.526 135.209C110.039 132.233 106.781 130.038 102.092 128.475L101.46 130.373C105.955 131.871 108.601 133.831 109.738 136.103L111.526 135.209ZM102.147 128.496L95.5874 125.872L94.8446 127.728L101.405 130.352L102.147 128.496ZM96.216 126.8V123.52H94.216V126.8H96.216ZM95.216 124.52H179.512V122.52H95.216V124.52ZM178.512 123.52V126.8H180.512V123.52H178.512ZM179.141 125.872L172.581 128.496L173.323 130.352L179.883 127.728L179.141 125.872ZM172.622 128.48C168.137 130.05 164.932 132.239 163.232 135.152L164.96 136.16C166.322 133.825 169.02 131.86 173.282 130.368L172.622 128.48ZM163.202 135.209C161.794 138.023 161.128 141.693 161.128 146.152H163.128C163.128 141.864 163.774 138.537 164.99 136.103L163.202 135.209ZM161.128 146.152V317.368H163.128V146.152H161.128ZM161.128 317.368C161.128 321.827 161.794 325.497 163.202 328.311L164.99 327.417C163.774 324.983 163.128 321.656 163.128 317.368H161.128ZM163.252 328.401C164.948 331.065 168.128 333.243 172.581 335.024L173.323 333.168C169.029 331.45 166.306 329.474 164.94 327.327L163.252 328.401ZM172.581 335.024L179.141 337.648L179.883 335.792L173.323 333.168L172.581 335.024ZM178.512 336.72V340H180.512V336.72H178.512ZM179.512 339H95.216V341H179.512V339Z" fill="#060100" mask="url(#path-5-outside-3_162_79)"/>
<mask id="path-7-outside-4_162_79" maskUnits="userSpaceOnUse" x="94" y="284" width="87" height="219" fill="black">
<rect fill="white" x="94" y="284" width="87" height="219"/>
<path d="M95.216 502V498.72L101.776 496.096C106.149 494.565 108.992 492.488 110.304 489.864C111.835 487.24 112.6 483.741 112.6 479.368V308.152C112.6 303.779 111.944 300.28 110.632 297.656C109.32 295.032 106.368 292.955 101.776 291.424L95.216 288.8V285.52H179.512V288.8L172.952 291.424C168.579 292.955 165.627 295.032 164.096 297.656C162.784 300.28 162.128 303.779 162.128 308.152V479.368C162.128 483.741 162.784 487.24 164.096 489.864C165.627 492.269 168.579 494.347 172.952 496.096L179.512 498.72V502H95.216Z"/>
</mask>
<path d="M95.216 502H94.216V503H95.216V502ZM95.216 498.72L94.8446 497.792L94.216 498.043V498.72H95.216ZM101.776 496.096L101.446 495.152L101.425 495.159L101.405 495.168L101.776 496.096ZM110.304 489.864L109.44 489.36L109.424 489.388L109.41 489.417L110.304 489.864ZM110.632 297.656L111.526 297.209L111.526 297.209L110.632 297.656ZM101.776 291.424L101.405 292.352L101.432 292.363L101.46 292.373L101.776 291.424ZM95.216 288.8H94.216V289.477L94.8446 289.728L95.216 288.8ZM95.216 285.52V284.52H94.216V285.52H95.216ZM179.512 285.52H180.512V284.52H179.512V285.52ZM179.512 288.8L179.883 289.728L180.512 289.477V288.8H179.512ZM172.952 291.424L173.282 292.368L173.303 292.361L173.323 292.352L172.952 291.424ZM164.096 297.656L163.232 297.152L163.216 297.18L163.202 297.209L164.096 297.656ZM164.096 489.864L163.202 490.311L163.225 490.357L163.252 490.401L164.096 489.864ZM172.952 496.096L172.581 497.024L172.581 497.024L172.952 496.096ZM179.512 498.72H180.512V498.043L179.883 497.792L179.512 498.72ZM179.512 502V503H180.512V502H179.512ZM96.216 502V498.72H94.216V502H96.216ZM95.5874 499.648L102.147 497.024L101.405 495.168L94.8446 497.792L95.5874 499.648ZM102.106 497.04C106.588 495.471 109.718 493.271 111.198 490.311L109.41 489.417C108.266 491.705 105.711 493.659 101.446 495.152L102.106 497.04ZM111.168 490.368C112.818 487.538 113.6 483.845 113.6 479.368H111.6C111.6 483.638 110.851 486.942 109.44 489.36L111.168 490.368ZM113.6 479.368V308.152H111.6V479.368H113.6ZM113.6 308.152C113.6 303.693 112.934 300.023 111.526 297.209L109.738 298.103C110.954 300.537 111.6 303.864 111.6 308.152H113.6ZM111.526 297.209C110.039 294.233 106.781 292.038 102.092 290.475L101.46 292.373C105.955 293.871 108.601 295.831 109.738 298.103L111.526 297.209ZM102.147 290.496L95.5874 287.872L94.8446 289.728L101.405 292.352L102.147 290.496ZM96.216 288.8V285.52H94.216V288.8H96.216ZM95.216 286.52H179.512V284.52H95.216V286.52ZM178.512 285.52V288.8H180.512V285.52H178.512ZM179.141 287.872L172.581 290.496L173.323 292.352L179.883 289.728L179.141 287.872ZM172.622 290.48C168.137 292.05 164.932 294.239 163.232 297.152L164.96 298.16C166.322 295.825 169.02 293.86 173.282 292.368L172.622 290.48ZM163.202 297.209C161.794 300.023 161.128 303.693 161.128 308.152H163.128C163.128 303.864 163.774 300.537 164.99 298.103L163.202 297.209ZM161.128 308.152V479.368H163.128V308.152H161.128ZM161.128 479.368C161.128 483.827 161.794 487.497 163.202 490.311L164.99 489.417C163.774 486.983 163.128 483.656 163.128 479.368H161.128ZM163.252 490.401C164.948 493.065 168.128 495.243 172.581 497.024L173.323 495.168C169.029 493.45 166.306 491.474 164.94 489.327L163.252 490.401ZM172.581 497.024L179.141 499.648L179.883 497.792L173.323 495.168L172.581 497.024ZM178.512 498.72V502H180.512V498.72H178.512ZM179.512 501H95.216V503H179.512V501Z" fill="#060100" mask="url(#path-7-outside-4_162_79)"/>
<mask id="path-9-outside-5_162_79" maskUnits="userSpaceOnUse" x="182" y="122" width="87" height="219" fill="black">
<rect fill="white" x="182" y="122" width="87" height="219"/>
<path d="M183.216 340V336.72L189.776 334.096C194.149 332.565 196.992 330.488 198.304 327.864C199.835 325.24 200.6 321.741 200.6 317.368V146.152C200.6 141.779 199.944 138.28 198.632 135.656C197.32 133.032 194.368 130.955 189.776 129.424L183.216 126.8V123.52H267.512V126.8L260.952 129.424C256.579 130.955 253.627 133.032 252.096 135.656C250.784 138.28 250.128 141.779 250.128 146.152V317.368C250.128 321.741 250.784 325.24 252.096 327.864C253.627 330.269 256.579 332.347 260.952 334.096L267.512 336.72V340H183.216Z"/>
</mask>
<path d="M183.216 340H182.216V341H183.216V340ZM183.216 336.72L182.845 335.792L182.216 336.043V336.72H183.216ZM189.776 334.096L189.446 333.152L189.425 333.159L189.405 333.168L189.776 334.096ZM198.304 327.864L197.44 327.36L197.424 327.388L197.41 327.417L198.304 327.864ZM198.632 135.656L199.526 135.209L199.526 135.209L198.632 135.656ZM189.776 129.424L189.405 130.352L189.432 130.363L189.46 130.373L189.776 129.424ZM183.216 126.8H182.216V127.477L182.845 127.728L183.216 126.8ZM183.216 123.52V122.52H182.216V123.52H183.216ZM267.512 123.52H268.512V122.52H267.512V123.52ZM267.512 126.8L267.883 127.728L268.512 127.477V126.8H267.512ZM260.952 129.424L261.282 130.368L261.303 130.361L261.323 130.352L260.952 129.424ZM252.096 135.656L251.232 135.152L251.216 135.18L251.202 135.209L252.096 135.656ZM252.096 327.864L251.202 328.311L251.225 328.357L251.252 328.401L252.096 327.864ZM260.952 334.096L260.581 335.024L260.581 335.024L260.952 334.096ZM267.512 336.72H268.512V336.043L267.883 335.792L267.512 336.72ZM267.512 340V341H268.512V340H267.512ZM184.216 340V336.72H182.216V340H184.216ZM183.587 337.648L190.147 335.024L189.405 333.168L182.845 335.792L183.587 337.648ZM190.106 335.04C194.588 333.471 197.718 331.271 199.198 328.311L197.41 327.417C196.266 329.705 193.711 331.659 189.446 333.152L190.106 335.04ZM199.168 328.368C200.818 325.538 201.6 321.845 201.6 317.368H199.6C199.6 321.638 198.851 324.942 197.44 327.36L199.168 328.368ZM201.6 317.368V146.152H199.6V317.368H201.6ZM201.6 146.152C201.6 141.693 200.934 138.023 199.526 135.209L197.738 136.103C198.954 138.537 199.6 141.864 199.6 146.152H201.6ZM199.526 135.209C198.039 132.233 194.781 130.038 190.092 128.475L189.46 130.373C193.955 131.871 196.601 133.831 197.738 136.103L199.526 135.209ZM190.147 128.496L183.587 125.872L182.845 127.728L189.405 130.352L190.147 128.496ZM184.216 126.8V123.52H182.216V126.8H184.216ZM183.216 124.52H267.512V122.52H183.216V124.52ZM266.512 123.52V126.8H268.512V123.52H266.512ZM267.141 125.872L260.581 128.496L261.323 130.352L267.883 127.728L267.141 125.872ZM260.622 128.48C256.137 130.05 252.932 132.239 251.232 135.152L252.96 136.16C254.322 133.825 257.02 131.86 261.282 130.368L260.622 128.48ZM251.202 135.209C249.794 138.023 249.128 141.693 249.128 146.152H251.128C251.128 141.864 251.774 138.537 252.99 136.103L251.202 135.209ZM249.128 146.152V317.368H251.128V146.152H249.128ZM249.128 317.368C249.128 321.827 249.794 325.497 251.202 328.311L252.99 327.417C251.774 324.983 251.128 321.656 251.128 317.368H249.128ZM251.252 328.401C252.948 331.065 256.128 333.243 260.581 335.024L261.323 333.168C257.029 331.45 254.306 329.474 252.94 327.327L251.252 328.401ZM260.581 335.024L267.141 337.648L267.883 335.792L261.323 333.168L260.581 335.024ZM266.512 336.72V340H268.512V336.72H266.512ZM267.512 339H183.216V341H267.512V339Z" fill="#060100" mask="url(#path-9-outside-5_162_79)"/>
<mask id="path-11-outside-6_162_79" maskUnits="userSpaceOnUse" x="182" y="284" width="87" height="219" fill="black">
<rect fill="white" x="182" y="284" width="87" height="219"/>
<path d="M183.216 502V498.72L189.776 496.096C194.149 494.565 196.992 492.488 198.304 489.864C199.835 487.24 200.6 483.741 200.6 479.368V308.152C200.6 303.779 199.944 300.28 198.632 297.656C197.32 295.032 194.368 292.955 189.776 291.424L183.216 288.8V285.52H267.512V288.8L260.952 291.424C256.579 292.955 253.627 295.032 252.096 297.656C250.784 300.28 250.128 303.779 250.128 308.152V479.368C250.128 483.741 250.784 487.24 252.096 489.864C253.627 492.269 256.579 494.347 260.952 496.096L267.512 498.72V502H183.216Z"/>
</mask>
<path d="M183.216 502H182.216V503H183.216V502ZM183.216 498.72L182.845 497.792L182.216 498.043V498.72H183.216ZM189.776 496.096L189.446 495.152L189.425 495.159L189.405 495.168L189.776 496.096ZM198.304 489.864L197.44 489.36L197.424 489.388L197.41 489.417L198.304 489.864ZM198.632 297.656L199.526 297.209L199.526 297.209L198.632 297.656ZM189.776 291.424L189.405 292.352L189.432 292.363L189.46 292.373L189.776 291.424ZM183.216 288.8H182.216V289.477L182.845 289.728L183.216 288.8ZM183.216 285.52V284.52H182.216V285.52H183.216ZM267.512 285.52H268.512V284.52H267.512V285.52ZM267.512 288.8L267.883 289.728L268.512 289.477V288.8H267.512ZM260.952 291.424L261.282 292.368L261.303 292.361L261.323 292.352L260.952 291.424ZM252.096 297.656L251.232 297.152L251.216 297.18L251.202 297.209L252.096 297.656ZM252.096 489.864L251.202 490.311L251.225 490.357L251.252 490.401L252.096 489.864ZM260.952 496.096L260.581 497.024L260.581 497.024L260.952 496.096ZM267.512 498.72H268.512V498.043L267.883 497.792L267.512 498.72ZM267.512 502V503H268.512V502H267.512ZM184.216 502V498.72H182.216V502H184.216ZM183.587 499.648L190.147 497.024L189.405 495.168L182.845 497.792L183.587 499.648ZM190.106 497.04C194.588 495.471 197.718 493.271 199.198 490.311L197.41 489.417C196.266 491.705 193.711 493.659 189.446 495.152L190.106 497.04ZM199.168 490.368C200.818 487.538 201.6 483.845 201.6 479.368H199.6C199.6 483.638 198.851 486.942 197.44 489.36L199.168 490.368ZM201.6 479.368V308.152H199.6V479.368H201.6ZM201.6 308.152C201.6 303.693 200.934 300.023 199.526 297.209L197.738 298.103C198.954 300.537 199.6 303.864 199.6 308.152H201.6ZM199.526 297.209C198.039 294.233 194.781 292.038 190.092 290.475L189.46 292.373C193.955 293.871 196.601 295.831 197.738 298.103L199.526 297.209ZM190.147 290.496L183.587 287.872L182.845 289.728L189.405 292.352L190.147 290.496ZM184.216 288.8V285.52H182.216V288.8H184.216ZM183.216 286.52H267.512V284.52H183.216V286.52ZM266.512 285.52V288.8H268.512V285.52H266.512ZM267.141 287.872L260.581 290.496L261.323 292.352L267.883 289.728L267.141 287.872ZM260.622 290.48C256.137 292.05 252.932 294.239 251.232 297.152L252.96 298.16C254.322 295.825 257.02 293.86 261.282 292.368L260.622 290.48ZM251.202 297.209C249.794 300.023 249.128 303.693 249.128 308.152H251.128C251.128 303.864 251.774 300.537 252.99 298.103L251.202 297.209ZM249.128 308.152V479.368H251.128V308.152H249.128ZM249.128 479.368C249.128 483.827 249.794 487.497 251.202 490.311L252.99 489.417C251.774 486.983 251.128 483.656 251.128 479.368H249.128ZM251.252 490.401C252.948 493.065 256.128 495.243 260.581 497.024L261.323 495.168C257.029 493.45 254.306 491.474 252.94 489.327L251.252 490.401ZM260.581 497.024L267.141 499.648L267.883 497.792L261.323 495.168L260.581 497.024ZM266.512 498.72V502H268.512V498.72H266.512ZM267.512 501H183.216V503H267.512V501Z" fill="#060100" mask="url(#path-11-outside-6_162_79)"/>
<rect y="268" width="275" height="77" fill="#E9E4E0"/>
<path d="M57.2 293.12C58.96 293.12 60.4 293.387 61.52 293.92C62.6667 294.427 63.68 295.027 64.56 295.72C65.0933 296.12 65.4933 296.173 65.76 295.88C66.0533 295.56 66.2533 294.827 66.36 293.68H67.28C67.2267 294.693 67.1867 295.92 67.16 297.36C67.1333 298.773 67.12 300.667 67.12 303.04H66.2C66.0133 301.867 65.8267 300.907 65.64 300.16C65.48 299.413 65.2533 298.773 64.96 298.24C64.6933 297.707 64.32 297.187 63.84 296.68C63.0667 295.72 62.12 295.027 61 294.6C59.88 294.173 58.6933 293.96 57.44 293.96C56.08 293.96 54.88 294.307 53.84 295C52.8 295.667 51.92 296.627 51.2 297.88C50.5067 299.133 49.9733 300.613 49.6 302.32C49.2267 304.027 49.04 305.893 49.04 307.92C49.04 310 49.24 311.893 49.64 313.6C50.04 315.28 50.6133 316.733 51.36 317.96C52.1333 319.16 53.0533 320.093 54.12 320.76C55.2133 321.4 56.4267 321.72 57.76 321.72C58.8533 321.72 59.9867 321.507 61.16 321.08C62.3333 320.627 63.2667 319.947 63.96 319.04C64.7067 318.24 65.2133 317.347 65.48 316.36C65.7733 315.347 66.0133 313.973 66.2 312.24H67.12C67.12 314.693 67.1333 316.68 67.16 318.2C67.1867 319.693 67.2267 320.96 67.28 322H66.36C66.2533 320.853 66.0667 320.133 65.8 319.84C65.56 319.547 65.1467 319.587 64.56 319.96C63.5733 320.653 62.52 321.267 61.4 321.8C60.3067 322.307 58.8933 322.56 57.16 322.56C54.52 322.56 52.2133 321.987 50.24 320.84C48.2667 319.693 46.7333 318.04 45.64 315.88C44.5467 313.72 44 311.12 44 308.08C44 305.093 44.56 302.48 45.68 300.24C46.8267 298 48.3867 296.253 50.36 295C52.3333 293.747 54.6133 293.12 57.2 293.12ZM84.9734 293.12C87.5868 293.12 89.8801 293.693 91.8534 294.84C93.8534 295.987 95.4001 297.64 96.4934 299.8C97.5868 301.933 98.1334 304.533 98.1334 307.6C98.1334 310.587 97.5734 313.2 96.4534 315.44C95.3334 317.68 93.7734 319.427 91.7734 320.68C89.7734 321.933 87.4934 322.56 84.9334 322.56C82.2934 322.56 79.9868 321.987 78.0134 320.84C76.0401 319.693 74.5068 318.04 73.4134 315.88C72.3201 313.72 71.7734 311.12 71.7734 308.08C71.7734 305.093 72.3334 302.48 73.4534 300.24C74.6001 298 76.1601 296.253 78.1334 295C80.1068 293.747 82.3868 293.12 84.9734 293.12ZM84.8134 293.84C83.1601 293.84 81.7201 294.44 80.4934 295.64C79.2668 296.84 78.3201 298.493 77.6534 300.6C76.9868 302.707 76.6534 305.147 76.6534 307.92C76.6534 310.747 77.0268 313.213 77.7734 315.32C78.5201 317.4 79.5334 319.013 80.8134 320.16C82.0934 321.28 83.5201 321.84 85.0934 321.84C86.7468 321.84 88.1734 321.24 89.3734 320.04C90.6001 318.84 91.5468 317.187 92.2134 315.08C92.9068 312.947 93.2534 310.507 93.2534 307.76C93.2534 304.907 92.8668 302.44 92.0934 300.36C91.3468 298.28 90.3334 296.68 89.0534 295.56C87.8001 294.413 86.3868 293.84 84.8134 293.84ZM126.893 293.68V294.48C125.987 294.533 125.307 294.693 124.853 294.96C124.4 295.227 124.093 295.667 123.933 296.28C123.8 296.867 123.733 297.707 123.733 298.8V322.16C123.52 322.16 123.307 322.16 123.093 322.16C122.88 322.16 122.653 322.16 122.413 322.16L105.453 297.52V316.72C105.453 317.84 105.533 318.72 105.693 319.36C105.853 319.973 106.2 320.413 106.733 320.68C107.267 320.947 108.08 321.12 109.173 321.2V322C108.667 321.947 108.013 321.92 107.213 321.92C106.44 321.893 105.707 321.88 105.013 321.88C104.347 321.88 103.68 321.893 103.013 321.92C102.347 321.92 101.8 321.947 101.373 322V321.2C102.253 321.12 102.92 320.96 103.373 320.72C103.827 320.453 104.133 320.013 104.293 319.4C104.453 318.787 104.533 317.947 104.533 316.88V297.92C104.533 296.933 104.453 296.213 104.293 295.76C104.133 295.28 103.827 294.96 103.373 294.8C102.92 294.613 102.253 294.507 101.373 294.48V293.68C101.8 293.707 102.347 293.733 103.013 293.76C103.68 293.787 104.347 293.8 105.013 293.8C105.6 293.8 106.173 293.787 106.733 293.76C107.293 293.733 107.787 293.707 108.213 293.68L122.813 314.56V298.96C122.813 297.813 122.72 296.933 122.533 296.32C122.373 295.707 122.027 295.267 121.493 295C120.96 294.707 120.16 294.533 119.093 294.48V293.68C119.573 293.707 120.213 293.733 121.013 293.76C121.813 293.787 122.56 293.8 123.253 293.8C123.92 293.8 124.587 293.787 125.253 293.76C125.92 293.733 126.467 293.707 126.893 293.68ZM152.571 293.68C152.464 294.8 152.384 295.893 152.331 296.96C152.304 298 152.291 298.8 152.291 299.36C152.291 299.973 152.304 300.56 152.331 301.12C152.358 301.68 152.384 302.16 152.411 302.56H151.491C151.224 300.56 150.864 298.987 150.411 297.84C149.984 296.693 149.358 295.867 148.531 295.36C147.704 294.853 146.518 294.6 144.971 294.6H143.251V317.4C143.251 318.467 143.344 319.267 143.531 319.8C143.744 320.333 144.144 320.693 144.731 320.88C145.344 321.04 146.224 321.147 147.371 321.2V322C146.624 321.947 145.664 321.92 144.491 321.92C143.318 321.893 142.118 321.88 140.891 321.88C139.611 321.88 138.398 321.893 137.251 321.92C136.131 321.92 135.224 321.947 134.531 322V321.2C135.678 321.147 136.544 321.04 137.131 320.88C137.718 320.693 138.118 320.333 138.331 319.8C138.544 319.267 138.651 318.467 138.651 317.4V294.6H136.891C135.398 294.6 134.224 294.853 133.371 295.36C132.518 295.867 131.878 296.693 131.451 297.84C131.024 298.987 130.678 300.56 130.411 302.56H129.491C129.544 302.16 129.571 301.68 129.571 301.12C129.598 300.56 129.611 299.973 129.611 299.36C129.611 298.8 129.584 298 129.531 296.96C129.504 295.893 129.438 294.8 129.331 293.68C130.478 293.707 131.731 293.733 133.091 293.76C134.451 293.787 135.824 293.8 137.211 293.8C138.598 293.8 139.851 293.8 140.971 293.8C142.091 293.8 143.331 293.8 144.691 293.8C146.051 293.8 147.424 293.787 148.811 293.76C150.198 293.733 151.451 293.707 152.571 293.68ZM165.168 293.52L174.928 318.64C175.302 319.627 175.728 320.293 176.208 320.64C176.715 320.987 177.182 321.173 177.608 321.2V322C176.968 321.947 176.208 321.92 175.328 321.92C174.475 321.893 173.608 321.88 172.728 321.88C171.608 321.88 170.568 321.893 169.608 321.92C168.648 321.92 167.875 321.947 167.288 322V321.2C168.648 321.147 169.502 320.92 169.848 320.52C170.222 320.093 170.142 319.2 169.608 317.84L162.408 298.4L163.048 297.68L156.408 315.04C155.928 316.24 155.635 317.24 155.528 318.04C155.448 318.84 155.515 319.467 155.728 319.92C155.968 320.373 156.368 320.693 156.928 320.88C157.488 321.067 158.182 321.173 159.008 321.2V322C158.208 321.947 157.395 321.92 156.568 321.92C155.768 321.893 155.008 321.88 154.288 321.88C153.648 321.88 153.075 321.893 152.568 321.92C152.088 321.92 151.648 321.947 151.248 322V321.2C151.808 321.067 152.368 320.733 152.928 320.2C153.488 319.667 154.022 318.76 154.528 317.48L163.808 293.52C164.022 293.52 164.248 293.52 164.488 293.52C164.728 293.52 164.955 293.52 165.168 293.52ZM169.368 310.48V311.28H157.448L157.848 310.48H169.368ZM192.122 293.12C193.882 293.12 195.322 293.387 196.442 293.92C197.589 294.427 198.602 295.027 199.482 295.72C200.015 296.12 200.415 296.173 200.682 295.88C200.975 295.56 201.175 294.827 201.282 293.68H202.202C202.149 294.693 202.109 295.92 202.082 297.36C202.055 298.773 202.042 300.667 202.042 303.04H201.122C200.935 301.867 200.749 300.907 200.562 300.16C200.402 299.413 200.175 298.773 199.882 298.24C199.615 297.707 199.242 297.187 198.762 296.68C197.989 295.72 197.042 295.027 195.922 294.6C194.802 294.173 193.615 293.96 192.362 293.96C191.002 293.96 189.802 294.307 188.762 295C187.722 295.667 186.842 296.627 186.122 297.88C185.429 299.133 184.895 300.613 184.522 302.32C184.149 304.027 183.962 305.893 183.962 307.92C183.962 310 184.162 311.893 184.562 313.6C184.962 315.28 185.535 316.733 186.282 317.96C187.055 319.16 187.975 320.093 189.042 320.76C190.135 321.4 191.349 321.72 192.682 321.72C193.775 321.72 194.909 321.507 196.082 321.08C197.255 320.627 198.189 319.947 198.882 319.04C199.629 318.24 200.135 317.347 200.402 316.36C200.695 315.347 200.935 313.973 201.122 312.24H202.042C202.042 314.693 202.055 316.68 202.082 318.2C202.109 319.693 202.149 320.96 202.202 322H201.282C201.175 320.853 200.989 320.133 200.722 319.84C200.482 319.547 200.069 319.587 199.482 319.96C198.495 320.653 197.442 321.267 196.322 321.8C195.229 322.307 193.815 322.56 192.082 322.56C189.442 322.56 187.135 321.987 185.162 320.84C183.189 319.693 181.655 318.04 180.562 315.88C179.469 313.72 178.922 311.12 178.922 308.08C178.922 305.093 179.482 302.48 180.602 300.24C181.749 298 183.309 296.253 185.282 295C187.255 293.747 189.535 293.12 192.122 293.12ZM229.055 293.68C228.949 294.8 228.869 295.893 228.815 296.96C228.789 298 228.775 298.8 228.775 299.36C228.775 299.973 228.789 300.56 228.815 301.12C228.842 301.68 228.869 302.16 228.895 302.56H227.975C227.709 300.56 227.349 298.987 226.895 297.84C226.469 296.693 225.842 295.867 225.015 295.36C224.189 294.853 223.002 294.6 221.455 294.6H219.735V317.4C219.735 318.467 219.829 319.267 220.015 319.8C220.229 320.333 220.629 320.693 221.215 320.88C221.829 321.04 222.709 321.147 223.855 321.2V322C223.109 321.947 222.149 321.92 220.975 321.92C219.802 321.893 218.602 321.88 217.375 321.88C216.095 321.88 214.882 321.893 213.735 321.92C212.615 321.92 211.709 321.947 211.015 322V321.2C212.162 321.147 213.029 321.04 213.615 320.88C214.202 320.693 214.602 320.333 214.815 319.8C215.029 319.267 215.135 318.467 215.135 317.4V294.6H213.375C211.882 294.6 210.709 294.853 209.855 295.36C209.002 295.867 208.362 296.693 207.935 297.84C207.509 298.987 207.162 300.56 206.895 302.56H205.975C206.029 302.16 206.055 301.68 206.055 301.12C206.082 300.56 206.095 299.973 206.095 299.36C206.095 298.8 206.069 298 206.015 296.96C205.989 295.893 205.922 294.8 205.815 293.68C206.962 293.707 208.215 293.733 209.575 293.76C210.935 293.787 212.309 293.8 213.695 293.8C215.082 293.8 216.335 293.8 217.455 293.8C218.575 293.8 219.815 293.8 221.175 293.8C222.535 293.8 223.909 293.787 225.295 293.76C226.682 293.733 227.935 293.707 229.055 293.68Z" fill="#060100"/>
</svg>
